<?xml version="1.0" encoding="UTF-8"?>
<svg id="Capa_7" xmlns="http://www.w3.org/2000/svg" viewBox="0 0 512 512">
  <defs>
    <style>
      .cls-1 {
        fill: #fff;
      }

      .cls-2 {
        fill: none;
      }

      .cls-3 {
        fill: #00739a;
      }

      .cls-4 {
        fill: #1ab5ec;
      }

      .cls-5 {
        fill: #183b51;
      }
    </style>
  </defs>
  <path class="cls-5" d="M34,305.19c-3.07,0-5.44-.84-7.11-2.52s-2.51-4.1-2.51-7.26v-49.54H7.95c-5.3,0-7.95-2.63-7.95-7.89s2.65-7.89,7.95-7.89h52.1c5.3,0,7.95,2.63,7.95,7.89s-2.65,7.89-7.95,7.89h-16.43v49.54c0,3.16-.82,5.57-2.46,7.26-1.64,1.68-4.03,2.52-7.17,2.52Z"/>
  <path class="cls-5" d="M103.03,305.19c-3.07,0-5.44-.84-7.11-2.52s-2.51-4.1-2.51-7.26v-55.53c0-3.16.84-5.57,2.51-7.26,1.67-1.68,4.08-2.52,7.22-2.52h25.74c8.37,0,14.84,2.05,19.41,6.15,4.57,4.1,6.85,9.8,6.85,17.09,0,5.54-1.38,10.18-4.13,13.94-2.76,3.75-6.75,6.36-11.98,7.84,3.91,1.05,7.04,3.75,9.42,8.1l5.23,9.47c1.12,2.1,1.62,4.1,1.52,5.99-.1,1.89-.86,3.45-2.25,4.68-1.4,1.23-3.45,1.84-6.17,1.84s-4.94-.54-6.64-1.63c-1.71-1.09-3.23-2.86-4.55-5.31l-9.52-17.56c-.84-1.54-1.9-2.61-3.19-3.21-1.29-.59-2.77-.89-4.45-.89h-5.75v18.83c0,3.16-.82,5.57-2.46,7.26-1.64,1.68-4.03,2.52-7.17,2.52ZM112.65,262.91h12.76c7.6,0,11.41-3.01,11.41-9.04s-3.8-8.94-11.41-8.94h-12.76v17.98Z"/>
  <path class="cls-5" d="M184.77,305.19c-3.28,0-5.69-1.12-7.22-3.37-1.54-2.24-1.54-5.05,0-8.41l26.05-56.37c1.26-2.73,2.79-4.73,4.6-6,1.81-1.26,3.94-1.89,6.38-1.89s4.46.63,6.28,1.89c1.81,1.26,3.35,3.26,4.6,6l26.05,56.37c1.6,3.44,1.67,6.26.21,8.47s-3.77,3.31-6.91,3.31c-2.79,0-4.94-.63-6.43-1.89-1.5-1.26-2.84-3.29-4.03-6.1l-3.35-7.99h-32.96l-3.35,7.99c-1.26,2.81-2.55,4.84-3.87,6.1-1.33,1.26-3.35,1.89-6.07,1.89ZM214.38,250.29l-10.04,24.08h20.3l-10.04-24.08h-.21Z"/>
  <path class="cls-5" d="M284.38,304.25c-3.28,0-5.74-.91-7.38-2.73-1.64-1.82-2.35-4.14-2.14-6.94.21-2.8,1.46-5.64,3.77-8.52l31.7-40.07h-27.41c-5.51,0-8.27-2.66-8.27-7.99s2.75-7.89,8.27-7.89h40.81c3.28,0,5.75.91,7.43,2.73,1.67,1.82,2.39,4.14,2.15,6.94-.25,2.81-1.52,5.64-3.82,8.52l-31.81,40.07h29.19c5.51,0,8.27,2.63,8.27,7.89s-2.76,7.99-8.27,7.99h-42.48Z"/>
  <path class="cls-5" d="M395.39,305.4c-10.74,0-18.96-2.73-24.64-8.2-5.69-5.47-8.53-13.64-8.53-24.51v-33.76c0-3.16.84-5.57,2.51-7.26,1.67-1.68,4.04-2.52,7.11-2.52s5.44.84,7.11,2.52c1.67,1.68,2.51,4.1,2.51,7.26v33.97c0,5.4,1.18,9.47,3.56,12.2,2.37,2.73,5.82,4.1,10.36,4.1s7.88-1.37,10.25-4.1c2.37-2.73,3.56-6.8,3.56-12.2v-33.97c0-3.16.82-5.57,2.46-7.26,1.64-1.68,3.99-2.52,7.06-2.52s5.41.84,7.01,2.52c1.6,1.68,2.41,4.1,2.41,7.26v33.76c0,10.87-2.77,19.04-8.32,24.51s-13.69,8.2-24.43,8.2Z"/>
  <path class="cls-5" d="M468.68,304.25c-3.14,0-5.55-.86-7.22-2.58-1.67-1.72-2.51-4.12-2.51-7.2v-54.69c0-3.16.84-5.57,2.51-7.26,1.67-1.68,4.04-2.52,7.11-2.52s5.44.84,7.11,2.52c1.67,1.68,2.51,4.1,2.51,7.26v48.38h25.53c2.65,0,4.69.7,6.12,2.1,1.43,1.4,2.14,3.37,2.14,5.89s-.72,4.59-2.14,6c-1.43,1.4-3.47,2.1-6.12,2.1h-35.05Z"/>
  <path class="cls-4" d="M490.71,221.49c-23.14-108.38-119.42-189.67-234.71-189.67-106.25,0-196.36,69.04-227.95,164.71,1.69-.99,3.5-1.72,5.44-2.11,12.37-2.48,20.37,10.51,41.26,19.67,16.87,7.4,31.54,7.65,44.73,7.87,38.71.66,43.12-17.16,75.97-18.67,40.86-1.87,46.07,25.15,80.21,18.67,26.21-4.97,29.39-22.09,62.47-26,8.75-1.03,24.06-2.84,41.26,3.47,22.61,8.3,24.69,21.9,40.88,22.75,17.38.92,22.94-14.34,40.49-14.65,11.64-.21,21.84,6.28,29.95,13.97Z"/>
  <path class="cls-1" d="M272.48,211.06c.67,1.03,11.46-2.69,20.03-11.3,6.64-6.67,9.31-13.62,11.25-18.65,0,0,3.93-10.22,2.37-17.17-.07-.31-.33-1.24-.55-2-.69-2.35-.95-2.74-1.23-3.03-.45-.47-1.31-1.06-2.12-.99-1.45.13-2.89,2.35-2.92,5.59-1.45,11.89-5.31,20.14-8.03,24.89-.52.91-2.74,4.73-6.36,9.32-7.16,9.08-12.95,12.52-12.43,13.32Z"/>
  <path class="cls-1" d="M252.69,218.7c7.65-16.37,6.78-29.58,5.9-35.72-3.69-25.67-24.07-41.45-31.95-47.55-10.59-8.2-11.91-5.58-32.75-19.73-14.43-9.79-23.82-17.85-26.44-20.13-12.15-10.55-20-19.36-24.86-24.86-10.22-11.56-13.44-17.1-15.39-20.92-2.93-5.75-6.1-12.12-6.04-20.9.02-2.73.07-10.14,3.67-15.8,11.79-18.5,55.53-8.72,62.75-7.1,15.4,3.44,26.66,8.9,31.57,11.44,44.53,23.11,62.16,64.4,64.72,70.64,9.68,23.62,9.88,43.35,9.87,47.75-.02,7.21-.18,21.19-6.31,37.49-9.05,24.05-25.63,38.59-34.73,45.38Z"/>
  <path class="cls-1" d="M234.34,36.09c3.89.45,9.47.49,15.09-2.07,5.39-2.45,5.29-4.76,10.36-7.7,11.51-6.66,24.7-2.1,26.93-1.33,3.27,1.13,9.59,3.31,9.92,7.1.29,3.47-4.6,6.5-7.25,8.14-5.47,3.38-11.13,4.2-15.09,4.74-7.17.97-9.07-.13-12.43,1.78-3.59,2.03-5.47,5.56-6.51,8.29-7-6.31-14.01-12.63-21.01-18.94Z"/>
  <path class="cls-1" d="M169.47,105.94c-1.59,2.08-3.63,5.16-5.33,9.18-5.64,13.37-4.24,29.65,0,30.78,1.23.33,3.58-2.05,8.29-6.81,5.97-6.03,9.08-10.78,9.77-11.84,1.86-2.87,3.21-5.44,4.14-7.4-2.68-1.23-6.18-3.18-9.77-6.22-3.19-2.7-5.5-5.46-7.1-7.7Z"/>
  <g>
    <path class="cls-4" d="M256,32.68c12.68,0,25.13.99,37.28,2.89,1.9-1.54,3.53-3.42,3.36-5.46-.32-3.79-6.65-5.98-9.92-7.1-2.23-.77-15.42-5.33-26.93,1.33-5.07,2.93-4.97,5.24-10.36,7.7-.68.31-1.36.58-2.04.81,2.86-.1,5.73-.17,8.61-.17Z"/>
    <path class="cls-4" d="M138.2,63.64c31.77-17.98,68.03-28.92,106.7-30.68-7.36-6.34-15.88-12.37-25.76-17.5-4.91-2.55-16.17-8-31.57-11.44-7.22-1.61-50.96-11.39-62.75,7.1-3.61,5.66-3.65,13.07-3.67,15.8-.06,8.77,3.11,15.15,6.04,20.9,1.63,3.2,4.19,7.64,11.01,15.82Z"/>
  </g>
  <path class="cls-5" d="M426.99,388.62c-13.1-12.24-33.74-12.87-48.39-8.07-17.94,5.88-25.75,19.73-34.02,34.39-8.31,14.74-17.74,31.44-38.83,41.42-25.09,11.87-51.39,7.27-61.29,5.54-18.67-3.26-31.21-10.45-42.28-16.78-13.1-7.5-24.42-13.99-43.27-13.99-.11,0-.22,0-.33,0-6.54.03-23.93.1-38.95,10.94-6.17,4.45-11.09,10.1-14.98,16.18,41.29,33.6,93.96,53.75,151.35,53.75,73.9,0,139.95-33.44,183.96-85.97.87-15-3.54-28.59-12.98-37.41Z"/>
  <path class="cls-2" d="M426.99,388.62c-13.1-12.24-33.74-12.87-48.39-8.07-17.94,5.88-25.75,19.73-34.02,34.39-8.31,14.74-17.74,31.44-38.83,41.42-25.09,11.87-51.39,7.27-61.29,5.54-18.67-3.26-31.21-10.45-42.28-16.78-13.1-7.5-24.42-13.99-43.27-13.99-.11,0-.22,0-.33,0-6.54.03-23.93.1-38.95,10.94-6.17,4.45-11.09,10.1-14.98,16.18,41.29,33.6,93.96,53.75,151.35,53.75,73.9,0,139.95-33.44,183.96-85.97.87-15-3.54-28.59-12.98-37.41Z"/>
  <path class="cls-4" d="M488.68,330.83c.16-.63.32-1.27.47-1.9.31-1.27.61-2.55.9-3.82.06-.27.13-.54.19-.82h0c.58-2.62,1.14-5.25,1.64-7.89H20.13c.5,2.65,1.05,5.28,1.64,7.89h0c.05.22.11.44.16.66.4,1.77.82,3.53,1.26,5.28.14.57.28,1.13.42,1.7.49,1.9,1,3.79,1.53,5.67h0c9.38,33.05,25.67,63.17,47.2,88.75-.21-4.98.07-10.26,1.1-15.79.8-4.36,5.79-26.89,25.07-42.75,42-34.57,123.44-11.34,147.46,5.78l.36.26c8.3,5.97,17.33,10.5,26.82,13.46,6.55,2.05,11.7,3.65,18.43,3.45,11.76-.37,24.08-6.44,34.68-17.09,5.3-5.32,8.57-10.54,11.46-15.15,4.47-7.12,8.32-13.27,17.35-16.16,3.96-1.27,7.64-1.5,9.99-1.46,11.35.16,19.85,6.73,23.94,9.89.65.5,1.19.92,1.63,1.23,18.58,12.85,42.04,10.34,56.05,8.84,14.47-1.55,27.02-7.22,37.44-14.3.97-2.96,1.87-5.95,2.73-8.96h.02c.14-.5.27-1,.41-1.5.14-.5.27-1,.41-1.5.34-1.25.67-2.51.99-3.77Z"/>
  <path class="cls-2" d="M488.68,330.83c.16-.63.32-1.27.47-1.9.31-1.27.61-2.55.9-3.82.06-.27.13-.54.19-.82h0c.58-2.62,1.14-5.25,1.64-7.89H20.13c.5,2.65,1.05,5.28,1.64,7.89h0c.05.22.11.44.16.66.4,1.77.82,3.53,1.26,5.28.14.57.28,1.13.42,1.7.49,1.9,1,3.79,1.53,5.67h0c9.38,33.05,25.67,63.17,47.2,88.75-.21-4.98.07-10.26,1.1-15.79.8-4.36,5.79-26.89,25.07-42.75,42-34.57,123.44-11.34,147.46,5.78l.36.26c8.3,5.97,17.33,10.5,26.82,13.46,6.55,2.05,11.7,3.65,18.43,3.45,11.76-.37,24.08-6.44,34.68-17.09,5.3-5.32,8.57-10.54,11.46-15.15,4.47-7.12,8.32-13.27,17.35-16.16,3.96-1.27,7.64-1.5,9.99-1.46,11.35.16,19.85,6.73,23.94,9.89.65.5,1.19.92,1.63,1.23,18.58,12.85,42.04,10.34,56.05,8.84,14.47-1.55,27.02-7.22,37.44-14.3.97-2.96,1.87-5.95,2.73-8.96h.02c.14-.5.27-1,.41-1.5.14-.5.27-1,.41-1.5.34-1.25.67-2.51.99-3.77Z"/>
  <path class="cls-3" d="M447.19,365.7c-14.69,1.57-39.28,4.2-59.34-9.68-.5-.34-1.11-.82-1.84-1.38-3.95-3.05-11.3-8.73-21.03-8.87-1.99-.04-5.1.16-8.44,1.23-7.34,2.34-10.43,7.28-14.71,14.11-3.02,4.82-6.45,10.29-12.13,16-11.48,11.54-24.97,18.11-37.98,18.52-7.51.24-13.32-1.57-20.03-3.67-10-3.13-19.49-7.89-28.21-14.16l-.35-.25c-23.15-16.49-101.41-39.01-141.55-5.98-17.97,14.79-22.62,35.81-23.37,39.88-1.41,7.6-1.33,14.71-.44,21.14,7.21,7.99,14.91,15.52,23.12,22.49,4.2-6.41,9.45-12.31,15.89-16.95,16.29-11.75,34.81-11.83,41.78-11.86,20.3-.15,32.83,7.06,46.04,14.63,11.24,6.44,22.86,13.1,40.7,16.21,9.49,1.66,34.68,6.06,58.37-5.14,19.7-9.32,28.33-24.62,36.67-39.41,8.74-15.5,17-30.15,36.74-36.62,16.01-5.25,38.68-4.46,53.23,9.14,9.13,8.53,14.05,20.99,14.56,34.91,15.5-19.76,27.96-42.01,36.7-66.04-9.89,5.87-21.39,10.38-34.38,11.77Z"/>
  <path class="cls-2" d="M447.19,365.7c-14.69,1.57-39.28,4.2-59.34-9.68-.5-.34-1.11-.82-1.84-1.38-3.95-3.05-11.3-8.73-21.03-8.87-1.99-.04-5.1.16-8.44,1.23-7.34,2.34-10.43,7.28-14.71,14.11-3.02,4.82-6.45,10.29-12.13,16-11.48,11.54-24.97,18.11-37.98,18.52-7.51.24-13.32-1.57-20.03-3.67-10-3.13-19.49-7.89-28.21-14.16l-.35-.25c-23.15-16.49-101.41-39.01-141.55-5.98-17.97,14.79-22.62,35.81-23.37,39.88-1.41,7.6-1.33,14.71-.44,21.14,7.21,7.99,14.91,15.52,23.12,22.49,4.2-6.41,9.45-12.31,15.89-16.95,16.29-11.75,34.81-11.83,41.78-11.86,20.3-.15,32.83,7.06,46.04,14.63,11.24,6.44,22.86,13.1,40.7,16.21,9.49,1.66,34.68,6.06,58.37-5.14,19.7-9.32,28.33-24.62,36.67-39.41,8.74-15.5,17-30.15,36.74-36.62,16.01-5.25,38.68-4.46,53.23,9.14,9.13,8.53,14.05,20.99,14.56,34.91,15.5-19.76,27.96-42.01,36.7-66.04-9.89,5.87-21.39,10.38-34.38,11.77Z"/>
</svg>