<?xml version="1.0" encoding="UTF-8"?>
<svg id="Capa_10" xmlns="http://www.w3.org/2000/svg" viewBox="0 0 187.69 168.6">
  <defs>
    <style>
      .cls-1 {
        fill: #29abe2;
      }

      .cls-2 {
        fill: #0071bc;
      }

      .cls-3 {
        fill: #0487d9;
      }

      .cls-4 {
        fill: #fff;
      }
    </style>
  </defs>
  <g>
    <path class="cls-3" d="M156.35,47.28c-6.97-5.88-15.97-9.44-25.8-9.44s-18.83,3.56-25.8,9.44c-.07.77-.12,1.55-.12,2.34,0,14.32,11.61,25.92,25.92,25.92s25.92-11.61,25.92-25.92c0-.79-.05-1.57-.12-2.34Z"/>
    <path class="cls-3" d="M101.88,51.36c-.03-.58-.09-1.15-.09-1.73,0-.88.05-1.74.13-2.6l.11-1.16.89-.75c7.73-6.52,17.54-10.11,27.63-10.11s19.91,3.59,27.63,10.11l.89.75.11,1.16c.08.86.13,1.72.13,2.6,0,.69-.06,1.37-.1,2.05,11.06-3.47,18.19-8.93,18.19-15.08s-7.36-11.78-18.71-15.24c-7.23-13.19-17.16-21.35-28.14-21.35s-21.1,8.32-28.35,21.73c-10.68,3.48-17.53,8.84-17.53,14.87s6.71,11.28,17.21,14.76Z"/>
    <rect class="cls-3" x="114.63" y="80.98" width="32.2" height="33.82"/>
    <path class="cls-3" d="M112.51,122.29c0,1.99,1.61,3.6,3.6,3.6s3.6-1.61,3.6-3.6-1.61-3.6-3.6-3.6-3.6,1.61-3.6,3.6Z"/>
    <path class="cls-3" d="M146.01,125.89c1.99,0,3.6-1.61,3.6-3.6s-1.61-3.6-3.6-3.6-3.6,1.61-3.6,3.6,1.61,3.6,3.6,3.6Z"/>
    <path class="cls-3" d="M99.87,168.6l9.08-45.55v-42.07h-.49c-.89,0-1.74.17-2.55.43,0-.01,0-.03,0-.04-1.88.46-4.39,1.25-7.15,2.65,0,0-2.31,1.16-4.45,2.71-7.19,5.2-10.52,11.55-15.12,20.33-1.08,2.07-2.03,4.02-2.85,5.85-1.65-5.34-3.68-12.63-6.11-22.56-1.24-5.08-6.37-8.19-11.45-6.95-5.08,1.24-8.19,6.37-6.95,11.45,9.76,39.88,15.4,50.47,26.3,49.3,7.5-.81,9.66-7.38,11.4-12.67,1.25-3.79,2.96-8.99,6.44-15.63,1.56-2.97,2.79-5.3,3.9-7.18v59.92Z"/>
    <path class="cls-3" d="M161.6,109.25c1.43,2.66,2.46,5.46,3.37,7.96,2.66,7.26,2.87,13.28,3.03,18.13.37,11.06.62,22.2.74,33.26h18.95c-.12-11.28-.37-22.63-.75-33.9-.19-5.54-.47-13.9-4.18-24.02-2.39-6.51-6-16.34-15.38-23.55-2.6-1.99-5.38-3.38-5.38-3.38-2.67-1.33-5.07-2.06-6.79-2.48,0,.01,0,.02,0,.03-.71-.19-1.43-.32-2.2-.32h-.48v42.08l9.08,45.54v-59.35Z"/>
  </g>
  <g>
    <rect class="cls-4" x="2.23" y="22.41" width="64.98" height="93.66"/>
    <path class="cls-3" d="M63.62,19H6.14c-3.39,0-6.14,2.75-6.14,6.14v97.32c0,3.39,2.75,6.14,6.14,6.14h57.48c3.39,0,6.14-2.75,6.14-6.14V25.14c0-3.39-2.75-6.14-6.14-6.14ZM44.85,121.12c0,1.25-1.02,2.27-2.27,2.27h-15.39c-1.25,0-2.27-1.02-2.27-2.27v-.33c0-1.25,1.02-2.27,2.27-2.27h15.39c1.25,0,2.27,1.02,2.27,2.27v.33ZM65.57,111.45c0,1.25-1.02,2.27-2.27,2.27H6.46c-1.25,0-2.27-1.02-2.27-2.27V26.14c0-1.25,1.02-2.27,2.27-2.27h56.85c1.25,0,2.27,1.02,2.27,2.27v85.31Z"/>
    <g>
      <path class="cls-2" d="M46.86,89.14c-.04-1.39.73-1.79,1.23-3.78.32-1.28.31-2.39.26-3.07-.6.02-1.65.14-2.72.79-2.28,1.39-2.64,3.99-2.69,4.38-.13.03-.32.06-.56.03-.9-.11-1.34-.97-2.01-1.65-.43-.43-1.14-.97-2.31-1.32.05-.16.54-1.65-.36-2.87-.57-.78-1.39-1.02-1.65-1.09-.87-.24-1.58-.04-2.37.2-.68.2-1.76.62-2.9,1.55-2.06-.03-4.68.31-7.31,1.65-1.14.58-5.69,2.9-5.53,5.93.02.42.12.7.26,1.09,1.2,3.33,5.05,4.7,6.67,5.28,1.01.36,2.6.81,4.66.92,1.29,1.42,2.71,2.21,3.69,2.01.24-.05.73-.15,1.02-.56.18-.26.21-.56.25-.98.04-.43.01-.79-.02-1.03.94-.06,1.35-.34,1.55-.59.09-.12.22-.34.49-.43.22-.07.44-.02.59.03.89.83,1.71,1.21,2.21,1.38.47.17.77.2,1.05.1.51-.18.74-.72.86-.99.53-1.24-.04-2.56-.23-2.96,1.07-.57,1.4-1,1.5-1.29.02-.07.09-.29.28-.39.18-.09.38-.03.53.03.05.25.77,3.54,3.35,4.34.38.12.93.22,1.61.14.13-.84.21-2.1-.18-3.51-.47-1.74-1.19-2.02-1.23-3.34ZM23.58,90.03c-.84,0-1.53-.95-1.53-2.13s.68-2.13,1.53-2.13,1.53.95,1.53,2.13-.68,2.13-1.53,2.13Z"/>
      <g>
        <g>
          <path class="cls-2" d="M53.31,91.17c-1.09,0-1.98-.89-1.98-1.98s.89-1.98,1.98-1.98,1.98.89,1.98,1.98-.89,1.98-1.98,1.98ZM53.31,87.74c-.8,0-1.45.65-1.45,1.45s.65,1.45,1.45,1.45,1.45-.65,1.45-1.45-.65-1.45-1.45-1.45Z"/>
          <path class="cls-2" d="M53.28,90.43s-.01,0-.02,0c-.42,0-.69-.24-.79-.34-.08-.08-.08-.21,0-.29s.21-.08.29,0c.05.05.24.22.51.22.32,0,.52-.2.56-.24.08-.08.2-.09.29-.01.08.08.09.2.01.29-.08.09-.38.37-.84.37Z"/>
          <ellipse class="cls-2" cx="53.23" cy="88.5" rx=".74" ry=".51"/>
        </g>
        <g>
          <path class="cls-2" d="M49.88,90.48c-1.09,0-1.98-.89-1.98-1.98s.89-1.98,1.98-1.98,1.98.89,1.98,1.98-.89,1.98-1.98,1.98ZM49.88,87.05c-.8,0-1.45.65-1.45,1.45s.65,1.45,1.45,1.45,1.45-.65,1.45-1.45-.65-1.45-1.45-1.45Z"/>
          <path class="cls-2" d="M49.85,89.74s-.01,0-.02,0c-.42,0-.69-.24-.79-.34-.08-.08-.08-.21,0-.29s.21-.08.29,0c.05.05.24.22.51.22.32,0,.52-.2.56-.24.08-.08.2-.09.29-.01.08.08.09.2.01.29-.08.09-.38.37-.84.37Z"/>
          <ellipse class="cls-2" cx="49.8" cy="87.81" rx=".74" ry=".51"/>
        </g>
        <g>
          <path class="cls-2" d="M50.96,93.79c-1.09,0-1.98-.89-1.98-1.98s.89-1.98,1.98-1.98,1.98.89,1.98,1.98-.89,1.98-1.98,1.98ZM50.96,90.36c-.8,0-1.45.65-1.45,1.45s.65,1.45,1.45,1.45,1.45-.65,1.45-1.45-.65-1.45-1.45-1.45Z"/>
          <path class="cls-2" d="M50.93,93.05s-.01,0-.02,0c-.42,0-.69-.24-.79-.34-.08-.08-.08-.21,0-.29s.21-.08.29,0c.05.05.24.22.51.22.32,0,.52-.2.56-.24.08-.08.2-.09.29-.01.08.08.09.2.01.29-.08.09-.38.37-.84.37Z"/>
          <ellipse class="cls-2" cx="50.88" cy="91.12" rx=".74" ry=".51"/>
        </g>
      </g>
      <g>
        <path class="cls-2" d="M23.37,100.27c-1.07,0-1.95-.87-1.95-1.95s.87-1.95,1.95-1.95,1.95.87,1.95,1.95-.87,1.95-1.95,1.95ZM23.37,96.9c-.78,0-1.42.64-1.42,1.42s.64,1.42,1.42,1.42,1.42-.64,1.42-1.42-.64-1.42-1.42-1.42Z"/>
        <path class="cls-2" d="M23.34,99.54s-.01,0-.02,0c-.41,0-.68-.23-.78-.33-.08-.08-.08-.2,0-.28s.2-.08.28,0c.05.05.23.21.5.22.31,0,.51-.2.55-.24.07-.08.2-.09.28-.01.08.07.09.2.01.28-.08.09-.37.36-.83.36Z"/>
        <ellipse class="cls-2" cx="23.29" cy="97.64" rx=".73" ry=".5"/>
      </g>
      <g>
        <path class="cls-2" d="M52.95,78.47c-1.07,0-1.95-.87-1.95-1.95s.87-1.95,1.95-1.95,1.95.87,1.95,1.95-.87,1.95-1.95,1.95ZM52.95,75.11c-.78,0-1.42.64-1.42,1.42s.64,1.42,1.42,1.42,1.42-.64,1.42-1.42-.64-1.42-1.42-1.42Z"/>
        <path class="cls-2" d="M52.91,77.75s-.01,0-.02,0c-.41,0-.68-.23-.78-.33-.08-.08-.08-.2,0-.28s.2-.08.28,0c.05.05.23.21.5.22.31,0,.51-.2.55-.24.07-.08.2-.09.28-.01.08.07.09.2.01.28-.08.09-.37.36-.83.36Z"/>
        <ellipse class="cls-2" cx="52.87" cy="75.85" rx=".73" ry=".5"/>
      </g>
      <g>
        <path class="cls-2" d="M47.89,80.86c-1.22,0-2.22-.99-2.22-2.22s.99-2.22,2.22-2.22,2.22.99,2.22,2.22-.99,2.22-2.22,2.22ZM47.89,77.03c-.89,0-1.62.72-1.62,1.62s.72,1.61,1.62,1.61,1.61-.72,1.61-1.61-.72-1.62-1.61-1.62Z"/>
        <path class="cls-2" d="M47.86,80.04s-.01,0-.02,0c-.47,0-.77-.27-.89-.38-.09-.09-.09-.23,0-.32s.23-.09.32,0c.06.06.26.24.57.25.35,0,.58-.22.62-.27.08-.09.23-.1.32-.01.09.08.1.23.01.32-.09.1-.42.41-.94.41Z"/>
        <ellipse class="cls-2" cx="47.8" cy="77.88" rx=".83" ry=".57"/>
      </g>
      <g>
        <path class="cls-2" d="M16.79,97.15c-1.28,0-2.32-1.04-2.32-2.32s1.04-2.32,2.32-2.32,2.32,1.04,2.32,2.32-1.04,2.32-2.32,2.32ZM16.79,93.14c-.93,0-1.69.76-1.69,1.69s.76,1.69,1.69,1.69,1.69-.76,1.69-1.69-.76-1.69-1.69-1.69Z"/>
        <path class="cls-2" d="M16.75,96.29s-.01,0-.02,0c-.49,0-.81-.28-.93-.4-.09-.09-.09-.24,0-.33s.24-.09.33,0c.06.06.28.25.6.26.37.01.61-.23.65-.28.09-.1.24-.1.33-.01.1.09.1.24.01.33-.09.1-.44.43-.98.43Z"/>
        <ellipse class="cls-2" cx="16.69" cy="94.03" rx=".87" ry=".6"/>
      </g>
      <g>
        <path class="cls-2" d="M18.05,101.01c-1.28,0-2.32-1.04-2.32-2.32s1.04-2.32,2.32-2.32,2.32,1.04,2.32,2.32-1.04,2.32-2.32,2.32ZM18.05,97c-.93,0-1.69.76-1.69,1.69s.76,1.69,1.69,1.69,1.69-.76,1.69-1.69-.76-1.69-1.69-1.69Z"/>
        <path class="cls-2" d="M18.01,100.15s-.01,0-.02,0c-.49,0-.81-.28-.93-.4-.09-.09-.09-.24,0-.33s.24-.09.33,0c.06.06.28.25.6.26.37.01.61-.23.65-.28.09-.1.24-.1.33-.01.1.09.1.24.01.33-.09.1-.44.43-.98.43Z"/>
        <ellipse class="cls-2" cx="17.96" cy="97.89" rx=".87" ry=".6"/>
      </g>
      <g>
        <path class="cls-2" d="M47.72,100.9c-1.21,0-2.2-.99-2.2-2.2s.99-2.2,2.2-2.2,2.2.99,2.2,2.2-.99,2.2-2.2,2.2ZM47.72,97.1c-.88,0-1.6.72-1.6,1.6s.72,1.6,1.6,1.6,1.6-.72,1.6-1.6-.72-1.6-1.6-1.6Z"/>
        <path class="cls-2" d="M47.69,100.08s-.01,0-.02,0c-.46,0-.77-.27-.88-.38-.09-.09-.09-.23,0-.32s.23-.09.32,0c.06.06.26.24.57.24.35,0,.58-.22.62-.27.08-.09.23-.1.32-.01.09.08.1.23.01.32-.09.1-.42.41-.93.41Z"/>
        <ellipse class="cls-2" cx="47.63" cy="97.94" rx=".82" ry=".57"/>
      </g>
      <g>
        <path class="cls-2" d="M43.93,100.14c-1.21,0-2.2-.99-2.2-2.2s.99-2.2,2.2-2.2,2.2.99,2.2,2.2-.99,2.2-2.2,2.2ZM43.93,96.34c-.88,0-1.6.72-1.6,1.6s.72,1.6,1.6,1.6,1.6-.72,1.6-1.6-.72-1.6-1.6-1.6Z"/>
        <path class="cls-2" d="M43.89,99.32s-.01,0-.02,0c-.46,0-.77-.27-.88-.38-.09-.09-.09-.23,0-.32s.23-.09.32,0c.06.06.26.24.57.24.35,0,.58-.22.62-.27.08-.09.23-.1.32-.01.09.08.1.23.01.32-.09.1-.42.41-.93.41Z"/>
        <ellipse class="cls-2" cx="43.84" cy="97.18" rx=".82" ry=".57"/>
      </g>
    </g>
    <g>
      <g>
        <circle class="cls-1" cx="34.88" cy="45.62" r="10.46"/>
        <g>
          <path class="cls-4" d="M44.99,45.62c0-.14-.07-.26-.18-.34-.17-5.22-4.37-9.42-9.59-9.59-.07-.11-.2-.18-.34-.18s-.27.07-.34.18c-5.21.18-9.39,4.37-9.57,9.58-.12.07-.2.2-.2.35s.08.28.2.35c.19,5.19,4.36,9.37,9.55,9.55.07.12.2.2.35.2s.28-.08.35-.2c5.21-.18,9.4-4.36,9.58-9.57.11-.07.18-.2.18-.34ZM39.49,49.66s-.03-.03-.05-.05c.25-1.11.39-2.33.42-3.61.1-.04.19-.12.23-.22h4.12c.04.11.13.19.24.23-.08.45-.3.89-.66,1.32-.47.56-1.15,1.06-2.02,1.49-.68.34-1.45.62-2.28.85ZM34.5,55.16c-.45-.08-.89-.3-1.32-.66-.56-.47-1.06-1.15-1.49-2.02-.33-.67-.61-1.42-.83-2.23.03-.02.05-.05.08-.09,1.17.25,2.45.4,3.8.41v4.37c-.1.04-.18.12-.22.22ZM30.28,49.65c-.82-.22-1.58-.5-2.26-.84-.87-.44-1.55-.94-2.02-1.49-.36-.43-.58-.87-.66-1.32.1-.04.18-.12.22-.22h4.16c.04.1.12.18.22.22.02,1.28.17,2.49.41,3.6-.02.02-.05.04-.07.06ZM30.27,41.56s.05.05.08.07c-.24,1.11-.39,2.33-.41,3.6-.09.04-.16.11-.21.2h-4.18c-.04-.09-.12-.16-.22-.2.08-.46.3-.91.67-1.34.47-.56,1.15-1.06,2.02-1.49.67-.34,1.43-.62,2.24-.84ZM35.27,36.05c.46.08.91.3,1.34.67.56.47,1.06,1.15,1.49,2.02.33.67.61,1.42.83,2.23-.03.02-.06.05-.08.08-1.16-.25-2.44-.4-3.79-.41v-4.36c.1-.05.17-.13.21-.24ZM38.78,49.83c-1.16.25-2.42.39-3.72.4v-4.46h4.26c.04.09.11.16.19.21-.02,1.24-.16,2.44-.4,3.54-.16.03-.29.15-.33.31ZM39.33,45.44h-4.27v-4.46c1.3.01,2.55.15,3.71.4.03.17.17.3.34.33.24,1.11.38,2.3.4,3.54-.08.04-.14.11-.18.19ZM34.72,36.3v4.35c-1.35.01-2.64.16-3.81.41-.02-.03-.04-.05-.07-.07.22-.82.5-1.57.84-2.25.44-.87.94-1.55,1.49-2.02.42-.36.86-.58,1.31-.66.04.11.12.2.23.24ZM30.98,49.83c-.04-.15-.16-.26-.31-.3-.24-1.11-.38-2.3-.4-3.54.09-.04.17-.12.21-.21h4.25v4.46c-1.31-.01-2.58-.15-3.74-.41ZM30.47,45.44c-.04-.08-.11-.15-.2-.19.02-1.24.16-2.43.4-3.54.16-.03.28-.16.32-.32,1.16-.25,2.43-.39,3.74-.4v4.46h-4.26ZM35.06,54.95v-4.38c1.34-.01,2.61-.16,3.77-.41.03.04.06.07.09.1-.22.8-.5,1.55-.83,2.22-.44.87-.94,1.55-1.49,2.02-.43.37-.88.59-1.34.67-.04-.1-.11-.17-.2-.22ZM44.21,45.44h-4.14c-.04-.09-.12-.17-.22-.2-.02-1.28-.17-2.5-.41-3.62.02-.02.04-.04.06-.06.82.22,1.58.5,2.26.84.87.44,1.55.94,2.02,1.49.36.43.59.88.67,1.33-.11.04-.19.11-.24.21ZM38.63,36.77c1.14.48,2.17,1.17,3.05,2.06.88.88,1.57,1.91,2.06,3.05.31.72.52,1.48.64,2.25-.78-1.25-2.52-2.28-4.79-2.89-.03-.16-.16-.3-.32-.33-.61-2.26-1.64-3.99-2.89-4.77.77.12,1.52.33,2.25.64ZM26.06,41.87c.48-1.14,1.17-2.17,2.06-3.05.88-.88,1.91-1.57,3.05-2.06.72-.31,1.48-.52,2.25-.64-1.24.78-2.28,2.51-2.88,4.76-.18.03-.32.17-.34.34-2.25.61-3.98,1.64-4.76,2.88.12-.77.33-1.52.64-2.25ZM31.16,54.44c-1.14-.48-2.17-1.17-3.05-2.06-.88-.88-1.57-1.91-2.06-3.05-.31-.72-.52-1.48-.64-2.25.78,1.24,2.51,2.27,4.76,2.88.02.19.17.34.35.36.61,2.24,1.64,3.97,2.88,4.74-.77-.12-1.52-.33-2.25-.64ZM43.73,49.34c-.48,1.14-1.17,2.17-2.06,3.05-.88.88-1.91,1.57-3.05,2.06-.72.31-1.48.52-2.25.64,1.24-.78,2.27-2.5,2.88-4.75.17-.03.31-.18.33-.35,2.26-.61,4-1.64,4.78-2.89-.12.77-.33,1.52-.64,2.25Z"/>
          <path class="cls-2" d="M29.52,53.55c.36.24.9.57,1.59.87,1.01.43,1.82.58,2.05.62.54.09,1,.12,1.34.12.01-.03.03-.07.07-.12.05-.06.12-.09.15-.11v-9.2h-4.25s-.02.08-.06.14c-.01.01-.06.07-.14.11-.16.08-.32.01-.34,0-.03-.01-.11-.05-.17-.13-.02-.03-.04-.06-.04-.09h-4.16s-.04.09-.1.14c-.05.04-.09.07-.12.08,0,.29.02.67.09,1.11.01.07.06.39.16.82.15.6.32,1.05.4,1.25.35.87.78,1.55,1.06,1.96.41.58,1.2,1.56,2.47,2.42Z"/>
          <path class="cls-2" d="M40.2,37.62c-.27-.18-.82-.53-1.58-.85-1.1-.47-2-.6-2.23-.64-.46-.07-.85-.08-1.13-.08-.01.03-.03.08-.07.12-.05.06-.11.1-.14.11,0,3.05-.02,6.1-.03,9.15,1.43,0,2.87,0,4.3,0,.01-.03.04-.07.07-.11.01-.01.05-.05.11-.08.16-.08.33-.02.34-.02.03.01.11.05.18.14.02.03.03.05.04.07h4.14s.05-.09.1-.13c.05-.04.1-.06.13-.08,0-.32-.01-.76-.11-1.26-.05-.29-.11-.51-.17-.73-.05-.18-.19-.7-.41-1.25-.43-1.04-.96-1.8-1.07-1.96-.46-.65-1.25-1.59-2.48-2.41Z"/>
          <g>
            <path class="cls-4" d="M35.47,44.47c-.16-.08-.21-.17-.21-.34,0-.45,0-7.8,0-8.26h-.76c0,.48,0,7.87,0,8.35,0,.14-.07.17-.17.22-.46.23-.72.58-.74,1.11-.02.56.22.96.72,1.2.15.07.22.17.21.34,0,.43,0,.86,0,1.29h.7c0-.42,0-.83,0-1.25,0-.2.06-.3.24-.39.46-.23.7-.61.7-1.14,0-.52-.23-.91-.7-1.14Z"/>
            <path class="cls-1" d="M34.87,46.19c-.34-.01-.58-.27-.57-.63,0-.32.27-.56.6-.54.34.01.57.25.56.59,0,.33-.27.59-.6.58Z"/>
          </g>
          <path class="cls-4" d="M34.53,47.63c0,.69,0,1.38,0,2.07,0,.18,0,.36-.03.54-.18,1.05-.77,1.78-1.78,2.09-1.01.31-1.92.04-2.65-.73-.58-.61-.73-1.37-.62-2.18.04-.31.14-.61.36-.85.02.4.02.81.02,1.21,0,.26.14.42.36.42.21,0,.33-.14.33-.41,0-.91,0-1.83,0-2.74,0-.05.03-.11-.03-.16-.12.09-.25.19-.37.28-1.04.8-1.57,1.83-1.39,3.17.25,1.82,1.93,3.19,4,2.72,1.5-.34,2.49-1.66,2.49-3.2,0-.74,0-1.49,0-2.23h-.7Z"/>
          <path class="cls-4" d="M43.28,41.86c-.39-.43-.87-.96-1.58-1.48-.25-.18-.53-.39-.95-.59-.26-.13-.62-.3-1.11-.39-.46-.08-.81-.06-.94-.05-.23.02-.54.07-.88.19-.67.24-1.1.62-1.38.88-.16.15-.4.37-.63.71,0,0-.05.07-.38.61.05-.04.12-.11.21-.18.14-.11.44-.33,1.06-.59.38-.16.63-.27,1-.34.52-.11.93-.09,1.24-.07.66.04,1.15.18,1.41.26.05.02.3.09.62.22.44.18.61.29.85.4.03.02.1.05.17.09.01,0,.07.05.07.05-.01,0-.03.01-.05.02-.06,0-.11-.03-.2-.08-.04-.02-.08-.04-.12-.06-.06-.03-.16-.07-.36-.14-.59-.19-.98-.26-.98-.26-.31-.06-.66-.13-1.13-.15-.22,0-.57,0-.99.05-.27.04-1.03.16-1.9.6-.44.22-.74.44-.83.51,0,0-.41.3-.83.76-.02.02-.02.03-.02.03,0,0,0,.01-.02.02,0,0-.01.01-.01.01,0,0-.02.01-.03,0,0,0-.01,0-.02-.02,0-.01,0-.02-.01-.03,0,0,0,0,0,0h-.07v.89h.15s0,0,0,0c0-.01.2.01.61.07,0-.07,0-.17,0-.29,0-.18,0-.19,0-.24.01-.15.03-.28.11-.37.05-.05.16-.13.22-.19.01-.01.02-.02.03-.02.04-.03.06-.05.08-.06,0,0,.03-.01.06,0,.02,0,.04.02.04.02.03.02.15.07.35.15.33.13.63.23.63.23.47.15.71.23,1.04.29.17.03.4.07.7.07.39,0,.68-.05.98-.12.44-.09.8-.21,1.11-.32.25-.09.31-.12.52-.18.13-.04.41-.11.77-.17.09-.01.5-.08,1.05-.08.39,0,.85.02.86.02-.13-.16-.32-.39-.55-.65Z"/>
        </g>
      </g>
      <g>
        <path class="cls-2" d="M22.52,64.27c-.09,0-.16-.03-.22-.09-.06-.06-.09-.14-.09-.23v-3.38c0-.09.03-.17.09-.23s.13-.09.22-.09c.09,0,.17.03.23.09.06.06.09.14.09.23v1.02l-.09-.16c.03-.16.09-.32.17-.47.08-.15.18-.29.31-.41.12-.12.27-.22.43-.29.16-.07.34-.1.53-.1.11,0,.22.03.31.08.1.05.14.13.14.23,0,.11-.03.19-.09.24-.06.05-.12.08-.19.08-.07,0-.13-.02-.19-.05-.06-.03-.14-.05-.23-.05-.13,0-.26.04-.38.11-.13.07-.24.17-.35.3-.11.13-.19.27-.26.43-.06.16-.1.34-.1.52v1.89c0,.09-.03.16-.09.23-.06.06-.13.09-.22.09Z"/>
        <path class="cls-2" d="M26.92,64.35c-.41,0-.78-.09-1.09-.26-.31-.18-.55-.42-.73-.73-.17-.31-.26-.66-.26-1.07,0-.45.09-.83.27-1.15.18-.32.41-.56.7-.73.29-.17.59-.25.91-.25.24,0,.47.04.7.13.22.09.42.22.59.39.17.17.31.37.42.61.1.23.16.5.16.79,0,.08-.04.15-.1.21-.06.05-.13.08-.22.08h-3.07l-.14-.54h2.99l-.12.11v-.17c-.02-.21-.09-.39-.21-.55-.12-.15-.27-.27-.44-.35-.17-.08-.36-.12-.55-.12-.16,0-.31.03-.46.09-.15.06-.29.15-.41.26-.12.12-.22.27-.29.47-.07.19-.11.42-.11.69,0,.3.06.56.18.79.12.23.29.41.51.54.22.13.47.2.75.2.19,0,.35-.02.48-.07.13-.05.25-.1.35-.17.1-.07.18-.14.25-.21.07-.05.13-.07.19-.07.08,0,.14.03.19.08.05.05.08.11.08.19,0,.09-.04.17-.13.24-.14.16-.34.3-.59.42s-.51.18-.79.18Z"/>
        <path class="cls-2" d="M32.7,58.52c.09,0,.17.03.23.09.06.06.09.14.09.23v5.11c0,.09-.03.16-.09.23-.06.06-.13.09-.22.09-.09,0-.17-.03-.23-.09-.06-.06-.09-.14-.09-.23v-.74l.15-.05c0,.12-.04.25-.12.38-.08.14-.18.27-.32.39-.13.12-.29.22-.48.3-.18.07-.38.11-.59.11-.35,0-.67-.09-.95-.27-.28-.18-.5-.43-.67-.75-.16-.32-.24-.68-.24-1.08s.08-.77.24-1.09c.16-.32.38-.56.66-.74s.59-.27.93-.27c.22,0,.42.04.61.11.19.07.36.17.5.3.14.12.25.26.34.41.08.15.12.3.12.45l-.2-.05v-2.53c0-.09.03-.16.09-.23.06-.06.13-.09.23-.09ZM31.1,63.77c.26,0,.49-.07.69-.2.2-.13.35-.31.46-.54.11-.23.17-.49.17-.78s-.06-.55-.17-.78c-.11-.23-.27-.41-.47-.54-.2-.13-.43-.2-.69-.2s-.48.07-.68.2c-.2.13-.36.31-.47.54-.11.23-.17.49-.17.78s.06.54.17.77c.11.23.27.41.47.55.2.13.43.2.68.2Z"/>
        <path class="cls-1" d="M37.37,60.22c.09,0,.17.03.23.09.06.06.09.13.09.22v3.42c0,.09-.03.16-.09.23-.06.06-.13.09-.22.09-.09,0-.17-.03-.23-.09-.06-.06-.09-.14-.09-.23v-.74l.15-.02c0,.12-.04.24-.12.38-.08.13-.18.26-.32.37-.13.12-.29.21-.48.29-.18.07-.38.11-.59.11-.36,0-.68-.09-.96-.28-.28-.18-.5-.43-.66-.75-.16-.32-.24-.68-.24-1.08s.08-.77.24-1.08c.16-.31.38-.56.66-.74s.59-.27.93-.27c.22,0,.43.04.62.11.19.07.36.17.5.3.14.12.25.26.33.41.08.15.12.3.12.45l-.2-.05v-.85c0-.09.03-.16.09-.22.06-.06.13-.09.23-.09ZM35.77,63.77c.26,0,.49-.07.69-.2.2-.13.35-.32.47-.55.11-.23.17-.49.17-.78s-.06-.54-.17-.77c-.11-.23-.27-.41-.47-.54-.2-.13-.43-.2-.69-.2s-.48.07-.68.2c-.2.13-.36.31-.47.54-.11.23-.17.49-.17.78s.06.55.17.78c.11.23.27.41.47.55.2.13.43.2.68.2Z"/>
        <path class="cls-1" d="M41.32,63.7c.08,0,.15.03.21.08.06.05.09.12.09.21,0,.08-.03.15-.09.2-.06.06-.13.09-.21.09h-2.52c-.09,0-.17-.03-.22-.1-.05-.07-.08-.13-.07-.19,0-.05,0-.1.02-.13.01-.04.04-.08.07-.12l2.21-3.01.02.09h-1.88c-.08,0-.15-.03-.21-.09-.06-.06-.09-.12-.09-.2,0-.08.03-.15.09-.21.06-.05.13-.08.21-.08h2.38c.08,0,.15.03.21.09.05.06.08.13.08.22,0,.04-.01.07-.02.11-.01.04-.03.08-.06.12l-2.2,2.97-.05-.04h2.03Z"/>
        <path class="cls-1" d="M45.46,60.26c.09,0,.17.03.23.09.06.06.09.14.09.23v2.11c0,.52-.15.93-.44,1.22-.29.29-.7.43-1.22.43s-.92-.14-1.22-.43c-.29-.29-.44-.69-.44-1.22v-2.11c0-.09.03-.17.09-.23s.13-.09.22-.09c.09,0,.17.03.23.09.06.06.09.14.09.23v2.11c0,.35.09.62.27.8.18.18.43.27.76.27s.59-.09.77-.27c.18-.18.27-.45.27-.8v-2.11c0-.09.03-.17.09-.23.06-.06.13-.09.23-.09Z"/>
        <path class="cls-1" d="M47.55,63.95c0,.09-.03.16-.09.23-.06.06-.14.09-.23.09s-.16-.03-.22-.09c-.06-.06-.09-.14-.09-.23v-5.11c0-.09.03-.16.09-.23.06-.06.14-.09.23-.09.09,0,.17.03.23.09.06.06.09.14.09.23v5.11Z"/>
      </g>
    </g>
  </g>
</svg>