<svg xmlns="http://www.w3.org/2000/svg" viewBox="0 0 318.62 358.43"><defs><style>.a531a117-5fc1-4323-b308-3aa65854ecb5{fill:#7ecaa9;}.b517eb0e-5b18-466a-8d11-025484508e6a{fill:#fff;}</style></defs><g id="ff2c6847-cc9c-4c4c-bded-4eb5db8978c5" data-name="Capa 26"><path class="a531a117-5fc1-4323-b308-3aa65854ecb5" d="M0,26.77V329.52a210.75,210.75,0,0,0,106.85,28.91c117,0,211.77-94.82,211.77-211.77A211.06,211.06,0,0,0,259.61,0H26.77A26.78,26.78,0,0,0,0,26.77Z"/><path class="b517eb0e-5b18-466a-8d11-025484508e6a" d="M239.56,84.33,218,62.76a11.09,11.09,0,0,0-15.68,0L72.56,192.51l-62.39-62.4a11.11,11.11,0,0,0-10.17-3v67.34l42.27,42.26a9.15,9.15,0,0,0,.83.94l21.57,21.57a11.21,11.21,0,0,0,15.79,0L102,237.65a10.53,10.53,0,0,0,.83-.94L239.56,100A11.09,11.09,0,0,0,239.56,84.33Z"/><rect class="a531a117-5fc1-4323-b308-3aa65854ecb5" width="26.89" height="29.11"/></g></svg>