<svg id="b61ac61a-acd4-4a21-85f0-6753e0753a11" data-name="Capa 1" xmlns="http://www.w3.org/2000/svg" viewBox="0 0 328.63 392.5"><defs><style>.b6dd2051-6120-4d1d-b53d-a60f57bc1144{fill:#f5dd96;}.b6f485fc-126f-463d-8720-4209c86a845e{fill:#fff;}</style></defs><path class="b6dd2051-6120-4d1d-b53d-a60f57bc1144" d="M27.83,0l-.94,0V0H0V218.76l188,163c25.49,22.1,65.34,8.31,71.74-24.81L328.63,0Z"/><path class="b6f485fc-126f-463d-8720-4209c86a845e" d="M58.6,183.56a30.75,30.75,0,0,1,7.45-23,30.73,30.73,0,0,1,21.2-11.54q12.68-1.31,23.19,7.42a30,30,0,0,1,11.32,21.22,30.73,30.73,0,0,1-7.45,23,30.73,30.73,0,0,1-21.2,11.55A29.93,29.93,0,0,1,70.17,205Q59.67,196.27,58.6,183.56Zm55.21-49.21q-.72-6.52,3.67-13.85L169,31.93a31.51,31.51,0,0,1,3.07-4.2q9.33-11.27,22.26-11.3t24.42,9.5q11.76,9.75,13.86,22.48t-7.23,24a33.63,33.63,0,0,1-3.58,3.79l-77.6,66.52q-6.15,5.88-12.68,6.37a16.88,16.88,0,0,1-17.75-14.73Z"/></svg>