<svg xmlns="http://www.w3.org/2000/svg" viewBox="0 0 318.62 358.43"><defs><style>.a5c04554-e7c7-4c0a-9523-0369058abc29{fill:#f59fa3;}.a770b9b9-5fda-480c-ad73-4200999f4654{fill:#fff;}</style></defs><g id="a99a4e3e-69d9-4f1b-8094-90c98bcdd7ad" data-name="Capa 28"><path class="a5c04554-e7c7-4c0a-9523-0369058abc29" d="M0,26.63V329.52a210.75,210.75,0,0,0,106.85,28.91c117,0,211.77-94.82,211.77-211.77A211.06,211.06,0,0,0,259.61,0h-233A26.63,26.63,0,0,0,0,26.63Z"/><path class="a770b9b9-5fda-480c-ad73-4200999f4654" d="M153.37,149.13l57.22-57.22a6.81,6.81,0,0,0,0-9.63L173.14,44.84a6.81,6.81,0,0,0-9.63,0l-57.22,57.22L49.07,44.84a6.81,6.81,0,0,0-9.63,0L2,82.28a6.83,6.83,0,0,0,0,9.63l57.23,57.22L2,206.35A6.83,6.83,0,0,0,2,216l37.45,37.45a6.81,6.81,0,0,0,9.63,0l57.22-57.22,57.22,57.22a6.81,6.81,0,0,0,9.63,0L210.59,216a6.81,6.81,0,0,0,0-9.63Z"/><rect class="a5c04554-e7c7-4c0a-9523-0369058abc29" width="26.89" height="29.11"/></g></svg>