<svg xmlns="http://www.w3.org/2000/svg" viewBox="0 0 318.62 358.43"><defs><style>.cls-1{fill:#97c2e8;}.cls-2{fill:#fff;}</style></defs><g id="Capa_29" data-name="Capa 29"><path class="cls-1" d="M0,329.52a210.75,210.75,0,0,0,106.85,28.91c117,0,211.77-94.82,211.77-211.77A211.06,211.06,0,0,0,259.61,0H0"/><path id="Trazado_506" data-name="Trazado 506" class="cls-2" d="M157.75,80.45h-29a7.25,7.25,0,1,0,0,14.49h29a7.25,7.25,0,0,0,0-14.49Zm-14.49,94.19a7.26,7.26,0,0,0,7.24-7.24v-29a7.25,7.25,0,1,0-14.49,0v29A7.27,7.27,0,0,0,143.26,174.64Zm50.93-47.88,5.44-5.44a7.19,7.19,0,0,0,0-10.14l-.08-.07a7.19,7.19,0,0,0-10.14,0L184,116.54a64.94,64.94,0,0,0-40.72-14.35A65.92,65.92,0,0,0,78,165.66a65.22,65.22,0,1,0,116.15-38.91Zm-50.93,91.36a50.69,50.69,0,1,1,.07,0Z"/></g></svg>