<svg id="Layer_5" data-name="Layer 5" xmlns="http://www.w3.org/2000/svg" width="35" height="35" viewBox="0 0 35 35">
  <defs>
    <style>
      .cls-1, .cls-2 {
        fill: #005fae;
      }

      .cls-1 {
        opacity: 0;
      }
    </style>
  </defs>
  <rect id="Rectángulo_86" data-name="Rectángulo 86" class="cls-1" width="35" height="35"/>
  <path id="Trazado_215" data-name="Trazado 215" class="cls-2" d="M16.691,5.061c2.406,0,4.944.088,7.481.277a10.048,10.048,0,0,1,3.15.525A5.629,5.629,0,0,1,31,10.88a63.075,63.075,0,0,1,.073,7.963A6.227,6.227,0,0,1,29.7,22.736a5.833,5.833,0,0,1-4.185,2.158c-1.458.146-3.019.248-4.535.335-1.91.087-3.821.087-5.746.073-2.494,0-4.973-.175-7.467-.379a6.14,6.14,0,0,1-4.1-1.837,5.673,5.673,0,0,1-1.546-3.529,76.332,76.332,0,0,1,0-7.963A6.11,6.11,0,0,1,3.989,7,5.833,5.833,0,0,1,7.621,5.542c1.283-.1,2.567-.219,3.85-.292A50.507,50.507,0,0,1,16.691,5.061ZM20.95,15.182h0l-6.883-4.258c-.19-.117-.2,0-.2.131v8.24c0,.2,0,.248.219.131L16.093,18.2Z" transform="translate(0.925 2.318)"/>
</svg>
