<svg xmlns="http://www.w3.org/2000/svg" width="14.458" height="14.458" viewBox="0 0 14.458 14.458">
  <g id="Grupo_121" data-name="Grupo 121" transform="translate(-0.001 0)">
    <path id="Trazado_211" data-name="Trazado 211" d="M11.861,1.371H5.355A3.969,3.969,0,0,0,1.372,5.34v6.506a3.969,3.969,0,0,0,3.969,3.983h6.506A3.969,3.969,0,0,0,15.83,11.86V5.354a3.969,3.969,0,0,0-3.969-3.983Zm2.727,10.388a2.825,2.825,0,0,1-2.825,2.825H5.442a2.825,2.825,0,0,1-2.825-2.825V5.441A2.825,2.825,0,0,1,5.442,2.615H11.76a2.825,2.825,0,0,1,2.825,2.825Z" transform="translate(-1.371 -1.371)" fill="#fff"/>
    <path id="Trazado_212" data-name="Trazado 212" d="M8.458,4.738a3.718,3.718,0,1,0,2.634,1.091A3.718,3.718,0,0,0,8.458,4.738Zm0,6.2A2.478,2.478,0,1,1,10.93,8.462a2.478,2.478,0,0,1-2.472,2.478Z" transform="translate(-1.192 -1.189)" fill="#fff"/>
    <path id="Trazado_213" data-name="Trazado 213" d="M11.955,3.737a.86.86,0,1,0,.86.86A.86.86,0,0,0,11.955,3.737Z" transform="translate(-0.843 -1.243)" fill="#fff"/>
  </g>
</svg>
