<?xml version="1.0" encoding="UTF-8"?>
<svg id="Capa_6" xmlns="http://www.w3.org/2000/svg" viewBox="0 0 2353.17 557.36">
  <defs>
    <style>
      .cls-1 {
        fill: #29abe2;
      }

      .cls-2 {
        fill: #0071bc;
      }

      .cls-3 {
        fill: #fff;
      }

      .cls-4 {
        fill: #008ddb;
      }

      .cls-5 {
        fill: #2ec9ff;
      }
    </style>
  </defs>
  <g>
    <circle class="cls-1" cx="278.68" cy="278.68" r="278.68"/>
    <g>
      <path class="cls-3" d="M548.14,278.68c0-3.73-1.87-7.02-4.71-9-4.51-139.19-116.52-251.19-255.71-255.7-1.98-2.88-5.29-4.77-9.04-4.77s-7.09,1.9-9.06,4.79C130.88,18.85,19.32,130.49,14.6,269.25c-3.22,1.91-5.38,5.41-5.38,9.42s2.17,7.53,5.4,9.44c4.99,138.39,116.27,249.67,254.66,254.68,1.91,3.2,5.4,5.35,9.4,5.35s7.47-2.14,9.39-5.32c138.84-4.67,250.55-116.31,255.34-255.13,2.86-1.98,4.73-5.28,4.73-9.01ZM401.4,386.44c-.41-.46-.84-.89-1.32-1.28,6.54-29.64,10.44-62.13,11.11-96.29,2.76-1.08,4.97-3.24,6.11-5.97h109.77c1.2,2.86,3.58,5.1,6.53,6.12-2.19,11.99-8.09,23.74-17.66,35.06-12.53,14.82-30.65,28.21-53.86,39.81-18.17,9.08-38.61,16.63-60.67,22.54ZM268.54,533.02c-12.04-2.17-23.85-8.08-35.21-17.69-14.82-12.53-28.21-30.65-39.81-53.86-8.92-17.83-16.34-37.87-22.21-59.47.78-.67,1.46-1.43,2.02-2.29,31.08,6.78,65.25,10.66,101.18,10.96v116.37c-2.7,1.11-4.86,3.27-5.97,5.98ZM156.09,386.3c-21.86-5.89-42.13-13.38-60.15-22.39-23.2-11.6-41.32-25-53.86-39.81-9.63-11.39-15.55-23.22-17.71-35.28,2.67-1.11,4.8-3.23,5.91-5.9h110.77c1.09,2.61,3.17,4.71,5.77,5.83.65,34.04,4.52,66.43,11.02,96-.64.45-1.23.98-1.75,1.56ZM155.7,170.62c.59.72,1.29,1.36,2.04,1.92-6.47,29.6-10.3,62.02-10.92,96.08-2.41,1.04-4.36,2.93-5.5,5.29H30.04c-1.18-2.44-3.23-4.37-5.75-5.39,2.08-12.24,8.04-24.25,17.8-35.79,12.53-14.82,30.65-28.21,53.86-39.81,17.91-8.96,38.04-16.41,59.76-22.29ZM289.05,23.71c12.19,2.11,24.14,8.05,35.64,17.78,14.82,12.53,28.21,30.65,39.81,53.86,8.92,17.84,16.35,37.88,22.21,59.49-.86.63-1.62,1.37-2.26,2.22-31.02-6.75-65.11-10.61-100.95-10.91V30.01c2.59-1.27,4.6-3.53,5.54-6.3ZM382.55,391.02c-30.87,6.71-64.38,10.36-99.05,10.65v-118.76h113.56c1,2.39,2.83,4.35,5.13,5.52-.62,33.04-4.29,64.96-10.76,94.44-4.34.7-7.82,3.94-8.87,8.15ZM397.32,273.91h-113.81v-118.76c34.62.29,68.08,3.94,98.91,10.62.87,4.53,4.53,8.05,9.12,8.74,6.43,29.48,10.07,61.39,10.65,94.42-2.12,1.09-3.84,2.84-4.88,4.99ZM274.51,30.31v115.83c-36.06.3-70.35,4.21-101.52,11.03-.53-.71-1.13-1.36-1.81-1.93,5.88-21.77,13.35-41.95,22.33-59.91,11.6-23.2,25-41.32,39.81-53.86,11.31-9.56,23.05-15.46,35.03-17.66,1.04,2.94,3.29,5.3,6.16,6.49ZM174.76,390.87c-1.04-3.92-4.18-6.97-8.15-7.87-6.48-29.46-10.16-61.37-10.79-94.4,2.45-1.15,4.42-3.18,5.47-5.69h113.21v118.76c-34.92-.29-68.69-4-99.74-10.8ZM161.04,273.91c-1.1-2.26-2.94-4.08-5.22-5.15.6-33.01,4.24-64.9,10.68-94.37,4.22-.91,7.54-4.25,8.42-8.48,31.02-6.78,64.72-10.48,99.59-10.77v118.76h-113.47ZM283.51,527.35v-116.68c35.7-.3,69.68-4.13,100.6-10.83.68,1,1.52,1.87,2.48,2.59-5.85,21.44-13.23,41.33-22.09,59.04-11.6,23.2-25,41.32-39.81,53.86-11.56,9.78-23.57,15.73-35.83,17.81-1.01-2.53-2.93-4.59-5.36-5.79ZM527.32,273.91h-110.28c-1.2-2.47-3.28-4.41-5.85-5.42-.63-34.18-4.5-66.7-11.01-96.37.59-.49,1.12-1.04,1.59-1.64,21.92,5.9,42.24,13.41,60.3,22.44,23.2,11.6,41.32,25,53.86,39.81,9.71,11.48,15.64,23.4,17.76,35.57-2.8.94-5.09,2.98-6.37,5.61ZM378.49,42.9c30.43,12.87,57.77,31.3,81.24,54.78,23.48,23.48,41.91,50.81,54.78,81.24,8.17,19.3,13.85,39.35,17.04,59.92-20.81-33.25-67.18-60.84-127.58-77.06-.77-4.39-4.14-7.88-8.47-8.82-16.23-60.17-43.77-106.34-76.93-127.1,20.57,3.19,40.61,8.88,59.92,17.04ZM43.5,178.92c12.87-30.43,31.3-57.77,54.78-81.24,23.48-23.48,50.81-41.9,81.24-54.78,19.3-8.17,39.35-13.85,59.92-17.04-33.14,20.75-60.66,66.87-76.89,126.99-4.72.71-8.45,4.41-9.19,9.12-60.07,16.24-106.16,43.75-126.9,76.87,3.19-20.57,8.88-40.61,17.04-59.92ZM179.52,513.91c-30.43-12.87-57.77-31.3-81.24-54.78-23.48-23.48-41.9-50.81-54.78-81.24-8.17-19.3-13.85-39.35-17.04-59.92,20.73,33.11,66.78,60.6,126.81,76.85.52,5.03,4.44,9.04,9.43,9.71,16.26,59.83,43.7,105.74,76.74,126.42-20.57-3.19-40.61-8.88-59.92-17.04ZM514.51,377.89c-12.87,30.43-31.3,57.77-54.78,81.24-23.48,23.48-50.81,41.91-81.24,54.78-19.3,8.17-39.35,13.85-59.92,17.04,33.05-20.69,60.51-66.64,76.77-126.52,4.6-.92,8.15-4.71,8.72-9.42,60.36-16.22,106.69-43.8,127.5-77.03-3.19,20.57-8.88,40.61-17.04,59.92Z"/>
      <path class="cls-2" d="M135.81,490.17c9.53,6.45,23.89,15.23,42.45,23.2,26.79,11.51,48.64,15.46,54.55,16.46,14.35,2.44,26.65,3.1,35.73,3.19.34-.82.93-1.96,1.94-3.1,1.46-1.65,3.08-2.48,4.03-2.88v-245.16h-113.21c-.2.84-.63,2.23-1.68,3.65-.27.36-1.51,1.98-3.78,3.06-4.26,2.03-8.42.38-9,.14-.8-.33-2.97-1.26-4.58-3.55-.61-.87-.97-1.69-1.19-2.28H30.29c-.35.88-1.09,2.41-2.6,3.82-1.24,1.15-2.5,1.76-3.32,2.08.08,7.66.58,17.78,2.33,29.56.27,1.85,1.57,10.38,4.38,21.8,3.93,15.92,8.49,28.01,10.57,33.27,9.21,23.28,20.75,41.4,28.32,52.14,10.82,15.34,31.89,41.61,65.81,64.59Z"/>
      <path class="cls-2" d="M420.58,65.51c-7.22-4.82-21.92-14.07-42.09-22.61-29.44-12.46-53.34-16.12-59.33-16.97-12.18-1.74-22.55-2.18-30.12-2.22-.29.85-.82,2.07-1.82,3.31-1.32,1.65-2.83,2.54-3.72,2.99-.26,81.33-.53,162.66-.79,243.99,38.2-.03,76.4-.06,114.6-.09.36-.74.97-1.79,1.98-2.83.33-.34,1.36-1.37,2.9-2.15,4.31-2.19,8.78-.52,8.99-.44.69.27,2.99,1.25,4.76,3.62.51.69.86,1.33,1.09,1.8h110.28c.42-.86,1.25-2.29,2.79-3.59,1.36-1.15,2.71-1.73,3.58-2.02.1-8.57-.38-20.15-2.83-33.65-1.4-7.72-2.99-13.59-4.61-19.5-1.33-4.87-5.04-18.61-11.04-33.22-11.39-27.72-25.63-48.04-28.58-52.19-12.23-17.2-33.42-42.45-66.06-64.22Z"/>
      <g>
        <path class="cls-3" d="M294.24,248.07c-4.16-2.04-5.54-4.53-5.52-9.17.04-12.02.06-208.03.08-220.05h-20.35c.02,12.89.05,209.78.08,222.67.01,3.62-1.79,4.58-4.4,5.86-12.29,6.01-19.21,15.53-19.63,29.67-.45,14.97,5.99,25.53,19.28,31.86,4.12,1.96,5.75,4.47,5.73,9.17-.05,11.46-.08,22.92-.09,34.38h18.62c-.02-11.13-.06-22.25-.11-33.38-.02-5.22,1.57-8.1,6.31-10.43,12.38-6.09,18.66-16.31,18.65-30.31,0-13.98-6.22-24.18-18.64-30.28Z"/>
        <path class="cls-1" d="M278.28,294.03c-9.06-.28-15.43-7.25-15.2-16.66.2-8.52,7.19-14.82,16.09-14.49,8.96.33,15.17,6.8,15.06,15.67-.11,8.77-7.29,15.74-15.94,15.48Z"/>
      </g>
      <path class="cls-3" d="M269.43,332.21c0,18.43,0,36.85.02,55.28,0,4.84-.04,9.66-.85,14.47-4.72,28.1-20.43,47.42-47.42,55.71-27.01,8.29-51.19,1.06-70.61-19.36-15.41-16.19-19.58-36.38-16.46-58.12,1.18-8.21,3.72-16.15,9.65-22.6.53,10.79.47,21.47.56,32.15.05,6.83,3.85,11.08,9.62,11.08,5.73,0,8.92-3.84,8.92-10.8,0-24.38.02-48.77-.04-73.15,0-1.4.77-3.06-.82-4.37-3.32,2.5-6.63,4.94-9.88,7.45-27.72,21.39-41.8,48.66-36.94,84.54,6.56,48.48,51.56,84.95,106.54,72.46,39.99-9.08,66.25-44.18,66.34-85.34.04-19.8.06-39.6.05-59.4h-18.66Z"/>
      <path class="cls-3" d="M502.57,178.63c-10.43-11.52-23.23-25.51-42.2-39.43-6.71-4.92-14.18-10.35-25.25-15.77-7.03-3.44-16.4-7.95-29.65-10.4-12.15-2.24-21.71-1.66-25.02-1.39-6.17.49-14.35,1.77-23.39,4.95-17.92,6.31-29.3,16.65-36.69,23.5-4.28,3.96-10.57,9.87-16.73,18.96,0,0-1.34,1.97-10.01,16.19,1.28-1.18,3.2-2.88,5.62-4.8,3.68-2.91,11.66-8.79,28.12-15.73,10.14-4.28,16.81-7.09,26.63-9.15,13.92-2.92,24.9-2.4,33.05-1.95,17.56.96,30.72,4.81,37.5,6.84,1.42.43,8.09,2.44,16.61,5.87,11.67,4.7,16.3,7.81,22.64,10.71.87.4,2.73,1.23,4.46,2.49.32.23,1.93,1.41,1.93,1.41-.3.17-.76.39-1.34.47-1.65.21-2.81-.89-5.21-2.25-1-.56-2.06-.99-3.08-1.5-1.64-.82-4.23-1.97-9.7-3.68-15.84-4.94-26.03-7-26.03-7-8.33-1.69-17.66-3.58-30.25-4.04-5.83-.21-15.14-.22-26.4,1.31-7.24.98-27.44,4.25-50.55,15.9-11.63,5.87-19.64,11.66-22.23,13.58,0,0-10.83,8.02-22.07,20.19-.44.48-.61.7-.61.7-.1.13-.22.3-.43.55-.18.21-.27.32-.37.38-.06.04-.42.28-.76.16-.21-.07-.32-.25-.47-.5-.17-.28-.2-.47-.36-.93-.04-.11-.07-.18-.1-.26h-1.74v23.83h4.13s0,0,0-.01c.05-.29,5.44.37,16.16,1.96.02-1.76.05-4.46.02-7.79-.04-4.7-.13-5.03.01-6.51.39-4.12.7-7.44,3.04-9.91,1.37-1.45,4.25-3.48,5.96-5.16.28-.28.42-.4.7-.65,1.02-.9,1.53-1.34,2.26-1.57.22-.07.9-.27,1.68-.09.59.14.98.43,1.08.5.89.64,4.09,1.89,9.44,3.97,8.72,3.4,16.87,6.06,16.87,6.06,12.55,4.1,18.83,6.15,27.63,7.71,4.57.81,10.6,1.86,18.57,1.95,10.39.13,18.09-1.43,26.06-3.09,11.73-2.44,21.31-5.71,29.59-8.53,6.72-2.29,8.34-3.09,13.96-4.72,3.35-.97,10.82-3.03,20.64-4.58,2.39-.38,13.31-2.05,28.02-2.15,10.4-.07,22.68.65,23.04.66-3.43-4.27-8.43-10.3-14.74-17.27Z"/>
    </g>
  </g>
  <g>
    <path class="cls-4" d="M731.67,419.82c-5.71,0-10.49-2.01-14.34-6.04-3.86-4.02-5.78-8.88-5.78-14.59v-218.85c0-6.04,1.92-10.98,5.78-14.84s8.63-5.78,14.34-5.78c6.04,0,10.9,1.93,14.59,5.78,3.69,3.86,5.54,8.81,5.54,14.84v65.91l-6.04-10.56c2.01-10.39,5.61-20.54,10.82-30.44,5.2-9.89,11.82-18.78,19.87-26.67,8.05-7.88,17.27-14.09,27.67-18.61,10.39-4.53,21.8-6.79,34.21-6.79,7.37,0,14.17,1.76,20.37,5.28,6.2,3.52,9.31,8.47,9.31,14.84,0,7.04-1.85,12.33-5.54,15.85-3.7,3.52-7.88,5.28-12.58,5.28-4.36,0-8.55-1.01-12.58-3.02-4.03-2.01-9.06-3.02-15.09-3.02-8.39,0-16.69,2.35-24.91,7.04-8.22,4.7-15.77,11.16-22.64,19.37-6.88,8.22-12.41,17.61-16.6,28.17-4.2,10.57-6.29,21.89-6.29,33.96v122.25c0,5.71-1.93,10.57-5.79,14.59-3.86,4.03-8.64,6.04-14.34,6.04Z"/>
    <path class="cls-4" d="M1016.43,424.86c-26.84,0-50.31-5.7-70.43-17.11-20.12-11.4-35.81-27.08-47.04-47.04-11.24-19.95-16.85-43.02-16.85-69.18,0-29.18,5.78-54.08,17.36-74.71,11.57-20.63,26.66-36.39,45.28-47.29,18.62-10.9,38.31-16.35,59.11-16.35,15.76,0,30.77,2.85,45.03,8.55,14.25,5.71,26.99,14.09,38.24,25.16,11.23,11.07,20.2,24.15,26.92,39.24,6.71,15.09,10.23,32.2,10.56,51.32-.34,5.37-2.52,9.81-6.54,13.33-4.03,3.52-8.73,5.28-14.09,5.28h-198.73l-9.05-34.71h193.69l-8.05,7.04v-11.07c-1.34-13.75-5.96-25.57-13.84-35.47-7.88-9.89-17.44-17.52-28.68-22.89-11.24-5.36-23.07-8.05-35.47-8.05-10.06,0-20.05,1.85-29.93,5.53-9.9,3.7-18.79,9.39-26.66,17.11-7.88,7.72-14.17,17.78-18.87,30.19-4.7,12.41-7.04,27.34-7.04,44.78,0,19.46,3.94,36.56,11.82,51.32,7.88,14.76,18.87,26.41,32.95,34.97,14.09,8.55,30.35,12.83,48.8,12.83,12.07,0,22.39-1.51,30.94-4.53,8.55-3.02,16.01-6.79,22.39-11.32,6.37-4.53,11.74-9.13,16.1-13.84,4.36-3.02,8.55-4.53,12.58-4.53,5.03,0,9.22,1.68,12.58,5.03,3.35,3.36,5.03,7.38,5.03,12.07,0,5.71-2.85,10.9-8.55,15.6-9.39,10.4-22.14,19.46-38.23,27.17-16.1,7.71-33.21,11.57-51.32,11.57Z"/>
    <path class="cls-4" d="M1390.74,47.53c6.04,0,10.9,1.93,14.59,5.78,3.69,3.86,5.54,8.81,5.54,14.84v331.04c0,5.71-1.93,10.57-5.79,14.59-3.86,4.03-8.64,6.04-14.34,6.04-6.04,0-10.9-2.01-14.59-6.04-3.7-4.02-5.54-8.88-5.54-14.59v-47.8l9.56-3.02c0,7.72-2.52,16.02-7.55,24.9-5.03,8.89-11.91,17.28-20.63,25.15-8.73,7.88-19.04,14.26-30.94,19.12-11.91,4.86-24.58,7.3-37.99,7.3-22.81,0-43.35-5.86-61.63-17.61-18.29-11.74-32.7-27.84-43.27-48.3-10.57-20.45-15.85-43.77-15.85-69.93s5.28-49.97,15.85-70.43c10.56-20.45,24.9-36.48,43.02-48.05,18.11-11.57,38.24-17.36,60.37-17.36,14.09,0,27.33,2.35,39.75,7.04,12.4,4.7,23.22,11.07,32.45,19.12,9.22,8.05,16.51,16.94,21.88,26.67,5.36,9.73,8.05,19.46,8.05,29.18l-13.08-3.02V68.15c0-5.7,1.84-10.56,5.54-14.59,3.69-4.02,8.55-6.04,14.59-6.04ZM1287.1,387.63c17.11,0,32.03-4.28,44.78-12.83,12.74-8.55,22.72-20.29,29.93-35.22,7.21-14.92,10.82-31.77,10.82-50.56s-3.61-35.63-10.82-50.56c-7.22-14.92-17.28-26.67-30.19-35.22-12.92-8.55-27.76-12.83-44.52-12.83s-31.11,4.27-44.02,12.83c-12.92,8.55-23.07,20.3-30.44,35.22-7.38,14.93-11.07,31.78-11.07,50.56s3.69,35.14,11.07,50.06c7.37,14.93,17.52,26.75,30.44,35.47,12.91,8.73,27.58,13.08,44.02,13.08Z"/>
    <path class="cls-5" d="M1693.61,157.2c6.04,0,10.9,1.93,14.59,5.78,3.69,3.86,5.54,8.64,5.54,14.34v221.87c0,5.71-1.93,10.57-5.79,14.59-3.86,4.03-8.64,6.04-14.34,6.04-6.04,0-10.9-2.01-14.59-6.04-3.7-4.02-5.54-8.88-5.54-14.59v-47.8l9.56-1.01c0,7.72-2.52,15.85-7.55,24.4-5.03,8.55-11.91,16.6-20.63,24.15-8.73,7.55-19.04,13.76-30.94,18.62-11.91,4.86-24.58,7.3-37.99,7.3-23.14,0-43.77-5.95-61.88-17.86-18.11-11.9-32.45-28.09-43.02-48.55-10.57-20.45-15.85-43.77-15.85-69.93s5.28-49.89,15.85-70.18c10.56-20.29,24.9-36.22,43.02-47.8s38.24-17.36,60.37-17.36c14.42,0,27.84,2.35,40.25,7.04,12.4,4.7,23.22,11.07,32.45,19.12,9.22,8.05,16.43,16.94,21.63,26.67,5.2,9.73,7.8,19.46,7.8,29.18l-13.08-3.02v-54.84c0-5.7,1.84-10.48,5.54-14.34,3.69-3.85,8.55-5.78,14.59-5.78ZM1589.97,387.63c16.77,0,31.61-4.36,44.52-13.08,12.91-8.72,22.97-20.54,30.19-35.47,7.21-14.92,10.82-31.77,10.82-50.56s-3.61-35.04-10.82-49.81c-7.22-14.76-17.28-26.49-30.19-35.22-12.92-8.72-27.76-13.08-44.52-13.08s-31.11,4.27-44.02,12.83c-12.92,8.55-23.07,20.21-30.44,34.97-7.38,14.76-11.07,31.53-11.07,50.31s3.69,35.64,11.07,50.56c7.37,14.93,17.52,26.75,30.44,35.47,12.91,8.73,27.58,13.08,44.02,13.08Z"/>
    <path class="cls-5" d="M1949.69,382.59c5.36,0,9.89,1.76,13.58,5.28,3.69,3.52,5.54,7.97,5.54,13.33,0,5.03-1.85,9.39-5.54,13.08-3.69,3.7-8.22,5.54-13.58,5.54h-163.01c-6.04,0-10.82-2.18-14.34-6.54-3.52-4.35-5.12-8.38-4.78-12.07,0-3.35.42-6.2,1.26-8.55.83-2.34,2.43-5.03,4.78-8.05l143.39-194.7,1.01,5.53h-121.75c-5.37,0-9.9-1.84-13.58-5.53-3.7-3.69-5.54-8.05-5.54-13.08,0-5.36,1.84-9.81,5.54-13.33,3.69-3.52,8.21-5.28,13.58-5.28h154.45c5.36,0,9.81,1.93,13.33,5.78,3.52,3.86,5.28,8.64,5.28,14.34-.34,2.35-.84,4.7-1.51,7.04-.68,2.35-2.01,4.87-4.03,7.55l-142.38,192.19-3.52-2.52h131.81Z"/>
    <path class="cls-5" d="M2217.84,159.72c6.04,0,10.9,1.93,14.59,5.78,3.69,3.86,5.54,8.81,5.54,14.84v136.85c0,33.88-9.48,60.12-28.43,78.74-18.95,18.61-45.37,27.92-79.24,27.92s-59.79-9.31-78.74-27.92c-18.95-18.62-28.43-44.86-28.43-78.74v-136.85c0-6.04,1.92-10.98,5.78-14.84,3.85-3.85,8.63-5.78,14.34-5.78,6.04,0,10.9,1.93,14.59,5.78,3.69,3.86,5.54,8.81,5.54,14.84v136.85c0,22.81,5.86,40.08,17.61,51.82,11.74,11.74,28.17,17.61,49.3,17.61s38.06-5.86,49.81-17.61c11.73-11.74,17.61-29.01,17.61-51.82v-136.85c0-6.04,1.84-10.98,5.53-14.84,3.69-3.85,8.55-5.78,14.59-5.78Z"/>
    <path class="cls-5" d="M2353.17,399.2c0,5.71-2.01,10.57-6.04,14.59-4.03,4.03-8.89,6.04-14.59,6.04s-10.49-2.01-14.34-6.04c-3.86-4.02-5.79-8.88-5.79-14.59V68.15c0-5.7,2.01-10.56,6.04-14.59,4.03-4.02,8.88-6.04,14.59-6.04,6.04,0,10.9,2.01,14.59,6.04,3.69,4.03,5.54,8.89,5.54,14.59v331.04Z"/>
  </g>
</svg>