<svg xmlns="http://www.w3.org/2000/svg" width="14.508" height="11.606" viewBox="0 0 14.508 11.606">
  <g id="mail_outline-24px" transform="translate(-2 -4)">
    <path id="Trazado_16" data-name="Trazado 16" d="M15.057,4H3.451A1.449,1.449,0,0,0,2.007,5.451L2,14.155a1.455,1.455,0,0,0,1.451,1.451H15.057a1.455,1.455,0,0,0,1.451-1.451v-8.7A1.455,1.455,0,0,0,15.057,4Zm-.725,10.155H4.176a.728.728,0,0,1-.725-.725V6.9L8.485,10.05a1.437,1.437,0,0,0,1.538,0L15.057,6.9V13.43A.728.728,0,0,1,14.331,14.155ZM9.254,9.078l-5.8-3.627H15.057Z" transform="translate(0 0)" fill="#fff"/>
  </g>
</svg>
