<?xml version="1.0" encoding="UTF-8"?>
<svg id="Capa_12" xmlns="http://www.w3.org/2000/svg" viewBox="0 0 196.22 164.67">
  <defs>
    <style>
      .cls-1 {
        fill: #39b54a;
      }

      .cls-2 {
        fill: #0487d9;
      }
    </style>
  </defs>
  <g>
    <path class="cls-2" d="M45.35,123.89c-11.26,0-20.39,9.13-20.39,20.39s9.13,20.39,20.39,20.39,20.39-9.13,20.39-20.39-9.13-20.39-20.39-20.39ZM45.35,153.34c-5,0-9.06-4.06-9.06-9.06s4.06-9.06,9.06-9.06c5,0,9.06,4.06,9.06,9.06s-4.06,9.06-9.06,9.06Z"/>
    <path class="cls-2" d="M159.04,123.89c-11.26,0-20.39,9.13-20.39,20.39s9.13,20.39,20.39,20.39,20.39-9.13,20.39-20.39-9.13-20.39-20.39-20.39ZM159.04,153.34c-5,0-9.06-4.06-9.06-9.06s4.06-9.06,9.06-9.06c5,0,9.06,4.06,9.06,9.06s-4.06,9.06-9.06,9.06Z"/>
    <path class="cls-2" d="M190.25,119.68c-.05-10.66-.1-21.32-.16-31.98-.09-.51-.25-1.31-.53-2.27-.53-1.77-1.17-3.02-1.4-3.5-2.43-4.79-1.71-4.44-5.67-11.6-9.21-16.65-13.09-18.55-15.25-19.28-.72-.24-1.32-.39-1.72-.47h-32.5c-2.6,0-4.7,2.14-4.7,4.79v86.97h7.7c.78-12.06,10.64-21.59,22.69-21.59s21.91,9.53,22.69,21.59h5.79c4.99,0,9.03-4.11,9.03-9.19v-4.83c0-3.98-2.49-7.37-5.97-8.65ZM148,96.08c0,1.1-.88,2-1.96,2h-6.36c-1.08,0-1.96-.89-1.96-2v-.85c0-1.1.88-2,1.96-2h6.36c1.08,0,1.96.89,1.96,2v.85ZM174.36,81.81h-30.5c-1.04,0-1.89-.86-1.89-1.92v-16.7c0-1.06.85-1.92,1.89-1.92h19.17c.41,0,1.05.07,1.69.42.62.34.95.8,1.45,1.48,1.73,2.32,1.12,1.35,1.88,2.47,1.25,1.85,2.13,3.36,2.31,3.68,2.1,3.62,3.14,5.43,3.7,6.71.44,1.02.99,2.42,1.49,4.17.23.81-.36,1.62-1.19,1.62Z"/>
    <path class="cls-2" d="M6.93,119.1v7.34c-3.91.52-6.93,3.87-6.93,7.92s3.02,7.4,6.93,7.92v.07h15.73c.64-11.99,10.56-21.51,22.71-21.51s22.07,9.52,22.71,21.51h56.89v-23.25c0-2.89-2.34-5.24-5.24-5.24H12.16c-2.89,0-5.24,2.34-5.24,5.24Z"/>
    <g>
      <rect class="cls-2" x="6.88" y="99.34" width="118.1" height="17.41" rx="8.05" ry="8.05"/>
      <rect class="cls-2" x="6.88" y="105.71" width="118.1" height="14.41"/>
      <g>
        <path class="cls-2" d="M73.79,78.06c-4.72,7.41-7.48,15.03-9.67,21.89h3.64c.32-.88.65-1.77,1.01-2.68,2.07-5.28,5.15-11.99,10.68-19.37,6.1-.71,11.88-2.97,11.94-4.76.03-.85-2.25-2.08-5.36-2.99,1.44-1.51,3-3.04,4.67-4.58.26,1.79,1.13,5.89,4.47,8.35,5.02,3.69,13.9,2.4,20.43-4.42-1.41,6.43-13.05,8.17-13.05,8.17-2.54,7.07-7.18,14.93-12.95,22.28h24.98c9.09-19.19,12.05-46.53,3.06-48.32-2.58-.51-10.56,6.02-10.52,5.48.18-2.65,5.18-5.92,5.16-5.93-.52-.3-10.15,1.91-18.38,7.08-5.29,3.32-9.6,6.97-13.17,10.81-1.06-.12-2.13-.19-3.16-.18-7.38.07-15.48,3.76-15.27,5.47.18,1.45,6.09,3.31,11.48,3.71ZM113.52,59.14c1.91.19,3.4,1.49,3.48,2.41.08.96-1.94,2.18-3.85,1.99-1.91-.19-2.97-1.61-3.07-2.69-.09-.96,1.52-1.91,3.43-1.72ZM96.95,63.99c.15-.12,1.26,2.33,3.93,3.58,4.67,2.18,10-1.28,10.17-.69.09.33-4.95,3.72-8.52,3.27-4.2-.53-5.79-6-5.58-6.16Z"/>
        <path class="cls-2" d="M13.62,99.96h15.57c-13-9.35-9.63-15.79-8.15-18.52.96-1.78,6.62,1.39,14.72-.97,6.81-1.98,12.3-6.97,11.58-8.93-.82-2.23-8.36.04-13.75-3.38-5.95-3.76-3.21-14.32-5.55-14.96-3.68-1-20.48,22.2-14.72,45.61.09.38.19.76.3,1.15Z"/>
      </g>
    </g>
  </g>
  <path class="cls-1" d="M98.5,39.74c-2.29,0-4.34-.29-6.17-.86-1.83-.57-3.58-1.58-5.24-3.01-.42-.36-.75-.77-.98-1.23-.23-.46-.34-.91-.34-1.37,0-.75.27-1.41.81-1.98.54-.57,1.22-.86,2.03-.86.62,0,1.18.2,1.67.59,1.24,1.01,2.47,1.78,3.7,2.3,1.22.52,2.74.78,4.53.78,1.21,0,2.32-.19,3.33-.56,1.01-.38,1.83-.88,2.45-1.52.62-.64.93-1.36.93-2.18,0-.98-.29-1.81-.88-2.5-.59-.69-1.49-1.27-2.7-1.74-1.21-.47-2.74-.84-4.61-1.1-1.76-.26-3.32-.66-4.66-1.2-1.34-.54-2.46-1.22-3.36-2.06-.9-.83-1.58-1.81-2.03-2.94-.46-1.13-.69-2.39-.69-3.8,0-2.12.55-3.94,1.64-5.44,1.09-1.5,2.57-2.65,4.43-3.43,1.86-.78,3.92-1.18,6.17-1.18,2.12,0,4.09.32,5.9.96,1.81.64,3.29,1.45,4.43,2.43.95.75,1.42,1.62,1.42,2.6,0,.72-.28,1.37-.83,1.96s-1.21.88-1.96.88c-.49,0-.93-.15-1.32-.44-.52-.46-1.22-.89-2.11-1.3-.88-.41-1.81-.75-2.79-1.03-.98-.28-1.9-.42-2.74-.42-1.41,0-2.59.18-3.55.54-.96.36-1.69.85-2.18,1.47-.49.62-.73,1.34-.73,2.16,0,.98.29,1.79.86,2.43.57.64,1.4,1.14,2.47,1.52,1.08.38,2.37.71,3.87,1,1.96.36,3.68.78,5.17,1.27,1.49.49,2.72,1.12,3.7,1.89.98.77,1.72,1.73,2.21,2.89.49,1.16.74,2.57.74,4.24,0,2.12-.59,3.95-1.76,5.49-1.18,1.54-2.72,2.71-4.63,3.53-1.91.82-3.98,1.23-6.2,1.23ZM102.02,42.39c0,.85-.29,1.56-.86,2.13-.57.57-1.28.86-2.13.86s-1.5-.29-2.06-.86c-.56-.57-.83-1.28-.83-2.13V2.99c0-.85.29-1.56.86-2.13.57-.57,1.28-.86,2.13-.86s1.54.29,2.08.86c.54.57.81,1.28.81,2.13v39.4Z"/>
</svg>