<?xml version="1.0" encoding="UTF-8"?>
<svg id="Capa_15" xmlns="http://www.w3.org/2000/svg" viewBox="0 0 193.94 163.16">
  <defs>
    <style>
      .cls-1 {
        fill: #29abe2;
      }

      .cls-2 {
        fill: #39b54a;
      }
    </style>
  </defs>
  <g>
    <path class="cls-1" d="M119.67,27.9c-4.65-4.79-9.3-9.58-13.95-14.36-.39-3.22-.77-6.44-1.16-9.66-.11-.44-.52-1.82-1.86-2.85-1.02-.79-2.08-.98-2.56-1.03h-24.02c-.48.06-1.54.24-2.56,1.03-1.34,1.03-1.75,2.4-1.86,2.85-.39,3.22-.77,6.44-1.16,9.66-4.65,4.79-9.3,9.58-13.95,14.36-.87.75-1.28,1.9-1.07,3.01.22,1.18,1.1,2.14,2.27,2.48h30.34s30.34,0,30.34,0c1.17-.33,2.05-1.3,2.27-2.48.21-1.12-.2-2.27-1.07-3.01Z"/>
    <path class="cls-1" d="M104.78,50.19c-4.31,4.32-10.18,6.98-16.65,6.98s-12.34-2.66-16.65-6.98c-6.32,5.12-10.38,13.09-10.38,22.04,0,15.46,12.1,27.99,27.03,27.99s27.03-12.53,27.03-27.99c0-8.95-4.06-16.92-10.38-22.04Z"/>
    <path class="cls-1" d="M69.54,37.56c2.21,8.49,9.69,14.74,18.59,14.74s16.38-6.25,18.59-14.74h-37.18Z"/>
    <circle class="cls-1" cx="62.49" cy="122.37" r="11.72"/>
    <path class="cls-1" d="M191.5,113.54c-1.09-.56-2.09-1.48-3.14-2.46-.66-.61-1.34-1.24-2.09-1.83-2.48-1.95-3.88-4.35-4.91-6.1-.91-1.55-2.43-4.16-2.96-7.89-.29-2.04-.24-4.21.15-6.29.18-.97.78-3.55,2.45-6.48,1.31-2.29,2.76-3.92,3.76-4.87,1.28-1.24,2.51-2.11,2.98-2.42.81-.55,2.2-1.37,2.76-1.69.44-.26.64-.37.65-.38.19-.11.31-.17.4-.22.2-.11.31-.17.48-.28.7-.45,1.88-1.21,1.91-2.74.01-.72-.26-2.06-2.2-2.91h0c-5.66-2.5-11.46-1.7-11.7-1.66-4.74.69-8.99,2.32-12.65,4.86-3.5,2.43-6.48,5.69-8.63,9.44l-.05.09c-.26.5-.61.93-1.04,1.28-.4.32-.66.52-.96.56-.48.07-.96-.26-1.1-.36l-.09-.06c-3.45-2.32-7.05-4.5-10.72-6.49-3.33-1.81-10.3-5.35-19.52-8.69-4.1-1.49-10.98-3.98-20.4-5.79-3.43-.66-9.18-1.77-16.72-2.02-8.73-.29-15.46.69-19.91,1.34-4.32.63-8.97,1.56-13.44,2.69-7.08,1.78-13.98,4.1-20.5,6.89-2.64,1.13-3.6,1.65-5.36,2.59-1.72.92-4.32,2.31-10.27,5.23-.22.11-5.36,2.63-9.53,5.45-.81.54-1.58,1.1-2.97,2.12-2.21,1.6-2.84,2.13-3.51,2.82-1.27,1.31-2.37,2.44-2.63,4.3-.25,1.76.41,3.65,1.87,5.34.48.56.92.91,1.22,1.14,2.96,2.34,3.92,2.97,4.02,3.04,2.25,1.46,3.83,2.49,4.98,3.24,2.88,1.87,3.05,1.99,3.99,2.54,2.99,1.77,7.99,4.72,15.02,8.06,2.16,1.03,6.19,2.94,11.69,5.03,1.13.43,2.24.85,3.37,1.27.62-8.46,7.67-15.12,16.28-15.12s16.33,7.31,16.33,16.33c0,1.55-.22,3.06-.63,4.48,1.67.06,3.33.09,4.99.09,1.17,0,2.33-.01,3.49-.04,3.39-.08,7.31-.18,11.85-.67-.3-1.24-.46-2.53-.46-3.86,0-9.02,7.31-16.33,16.33-16.33,7.23,0,13.36,4.7,15.51,11.21.97-.4,1.98-.82,3.03-1.26,1.06-.44,6.61-2.78,11.77-5.55,1.58-.85,3.13-1.74,4.15-2.33.56-.33,1.02-.6,1.35-.8.17-.1.34-.2.51-.32h0c.86-.52,1.73-1.06,2.57-1.6l.04-.03c1.01-.65,1.43-.92,1.67-1.1.21-.15.38-.28.53-.4.32-.25.36-.27.49-.33.22-.1.32-.14.37-.13,0,0,.08,0,.16.05.05.05.22.22.48.59.35.5.56.93.58.97h0c.74,1.58,2.19,3.35,3.36,4.71,2.65,3.08,5.65,4.93,6.78,5.63,2.31,1.43,4.79,2.55,7.36,3.34,3.06.94,6.32,1.41,9.41,1.34,1.52-.03,3.04-.18,4.54-.45l.1-.02c.65-.15,1.29-.31,1.91-.49.72-.21,2.22-.64,2.51-2.29.16-.92-.07-2.23-2.08-3.26ZM39.8,88.97c-.91,4.07-4.37,7.03-8.42,7.18-.11,0-.22,0-.32,0-4.44,0-8.32-3.46-8.93-8.01-.17-1.3.74-2.49,2.04-2.67,1.3-.17,2.49.74,2.67,2.04.3,2.26,2.22,3.97,4.37,3.89,1.86-.07,3.53-1.53,3.97-3.47.29-1.28,1.55-2.08,2.83-1.8,1.28.29,2.08,1.55,1.8,2.83ZM52.68,105.96c-.47.48-1.08.71-1.7.71s-1.2-.22-1.66-.68c-.94-.92-.95-2.42-.04-3.36,1.05-1.07,4.46-5.03,4.16-10.85-.25-4.89-2.99-8.17-4.15-9.36-.92-.93-.91-2.44.03-3.36.94-.92,2.44-.91,3.36.03,1.54,1.57,5.17,5.93,5.51,12.44.4,7.74-4.11,12.99-5.5,14.41Z"/>
    <circle class="cls-1" cx="114.38" cy="122.37" r="11.72"/>
    <path class="cls-1" d="M82.33,163.16v-22.12c0-2.09,1.71-3.8,3.8-3.8h4.11c2.09,0,3.8,1.71,3.8,3.8v1.16h.22v20.96h18.45v-24.54c-8.23-.84-14.65-7.79-14.65-16.25,0-2.16.42-4.21,1.18-6.1h-21.59c.76,1.88,1.18,3.94,1.18,6.1,0,8.55-6.57,15.56-14.94,16.27v24.52h18.45Z"/>
  </g>
  <path class="cls-2" d="M150.74,54.03c-2.29,0-4.34-.29-6.17-.86-1.83-.57-3.58-1.58-5.24-3.01-.42-.36-.75-.77-.98-1.23-.23-.46-.34-.91-.34-1.37,0-.75.27-1.41.81-1.98.54-.57,1.22-.86,2.03-.86.62,0,1.18.2,1.67.59,1.24,1.01,2.47,1.78,3.7,2.3,1.22.52,2.74.78,4.53.78,1.21,0,2.32-.19,3.33-.56,1.01-.38,1.83-.88,2.45-1.52.62-.64.93-1.36.93-2.18,0-.98-.29-1.81-.88-2.5-.59-.69-1.49-1.27-2.7-1.74-1.21-.47-2.74-.84-4.61-1.1-1.76-.26-3.32-.66-4.66-1.2-1.34-.54-2.46-1.22-3.36-2.06-.9-.83-1.58-1.81-2.03-2.94-.46-1.13-.69-2.39-.69-3.8,0-2.12.55-3.94,1.64-5.44,1.09-1.5,2.57-2.65,4.43-3.43,1.86-.78,3.92-1.18,6.17-1.18,2.12,0,4.09.32,5.9.96,1.81.64,3.29,1.45,4.43,2.43.95.75,1.42,1.62,1.42,2.6,0,.72-.28,1.37-.83,1.96s-1.21.88-1.96.88c-.49,0-.93-.15-1.32-.44-.52-.46-1.22-.89-2.11-1.3-.88-.41-1.81-.75-2.79-1.03-.98-.28-1.9-.42-2.74-.42-1.41,0-2.59.18-3.55.54-.96.36-1.69.85-2.18,1.47-.49.62-.73,1.34-.73,2.16,0,.98.29,1.79.86,2.43.57.64,1.4,1.14,2.47,1.52,1.08.38,2.37.71,3.87,1,1.96.36,3.68.78,5.17,1.27,1.49.49,2.72,1.12,3.7,1.89.98.77,1.72,1.73,2.21,2.89.49,1.16.74,2.57.74,4.24,0,2.12-.59,3.95-1.76,5.49-1.18,1.54-2.72,2.71-4.63,3.53-1.91.82-3.98,1.23-6.2,1.23ZM154.27,56.68c0,.85-.29,1.56-.86,2.13-.57.57-1.28.86-2.13.86s-1.5-.29-2.06-.86c-.56-.57-.83-1.28-.83-2.13V17.28c0-.85.29-1.56.86-2.13.57-.57,1.28-.86,2.13-.86s1.54.29,2.08.86c.54.57.81,1.28.81,2.13v39.4Z"/>
</svg>