<svg xmlns="http://www.w3.org/2000/svg" width="14.481" height="14.481" viewBox="0 0 14.481 14.481">
  <g id="phone-24px" transform="translate(-3.026 -3.01)">
    <path id="Trazado_18" data-name="Trazado 18" d="M16.089,12.885l-2.048-.234a1.6,1.6,0,0,0-1.322.459l-1.483,1.483A12.129,12.129,0,0,1,5.923,9.282L7.415,7.79a1.6,1.6,0,0,0,.459-1.322L7.64,4.437a1.613,1.613,0,0,0-1.6-1.427H4.642A1.6,1.6,0,0,0,3.029,4.679a13.7,13.7,0,0,0,12.81,12.81,1.6,1.6,0,0,0,1.669-1.612V14.481A1.6,1.6,0,0,0,16.089,12.885Z" transform="translate(0)" fill="#fff"/>
  </g>
</svg>
