<svg id="Layer_6" data-name="Layer 6" xmlns="http://www.w3.org/2000/svg" width="26.666" height="26.666" viewBox="0 0 26.666 26.666">
  <g id="Grupo_121" data-name="Grupo 121">
    <path id="Trazado_211" data-name="Trazado 211" d="M20.718,1.371h-12a7.32,7.32,0,0,0-7.346,7.32v12a7.32,7.32,0,0,0,7.32,7.346h12a7.32,7.32,0,0,0,7.346-7.32v-12a7.32,7.32,0,0,0-7.32-7.346Zm5.029,19.16a5.211,5.211,0,0,1-5.211,5.211H8.878a5.211,5.211,0,0,1-5.211-5.211V8.878A5.211,5.211,0,0,1,8.878,3.666H20.531a5.211,5.211,0,0,1,5.211,5.211Z" transform="translate(-1.371 -1.371)" fill="#FFFFFF"/>
    <path id="Trazado_212" data-name="Trazado 212" d="M11.594,4.738A6.857,6.857,0,1,0,16.453,6.75a6.857,6.857,0,0,0-4.859-2.011Zm0,11.44a4.571,4.571,0,1,1,4.56-4.571,4.571,4.571,0,0,1-4.56,4.571Z" transform="translate(1.806 1.808)" fill="#FFFFFF"/>
    <path id="Trazado_213" data-name="Trazado 213" d="M12.681,3.737a1.586,1.586,0,1,0,1.586,1.586A1.586,1.586,0,0,0,12.681,3.737Z" transform="translate(7.812 0.863)" fill="#FFFFFF"/>
  </g>
</svg>
