<svg xmlns="http://www.w3.org/2000/svg" width="20.806" height="14.458" viewBox="0 0 20.806 14.458">
  <g id="Layer_5" data-name="Layer 5" transform="translate(-2.019 -5.058)">
    <path id="Trazado_19" data-name="Trazado 19" d="M12.494,5.06c1.718,0,3.529.062,5.341.2a7.173,7.173,0,0,1,2.249.375,4.019,4.019,0,0,1,2.624,3.582A45.031,45.031,0,0,1,22.76,14.9a4.446,4.446,0,0,1-.979,2.78,4.165,4.165,0,0,1-2.988,1.541c-1.041.1-2.155.177-3.238.239-1.364.062-2.728.062-4.1.052-1.78,0-3.55-.125-5.331-.271A4.383,4.383,0,0,1,3.2,17.929a4.05,4.05,0,0,1-1.1-2.52,54.5,54.5,0,0,1,0-5.685,4.362,4.362,0,0,1,1.333-3.28A4.165,4.165,0,0,1,6.018,5.4c.916-.073,1.832-.156,2.749-.208A36.058,36.058,0,0,1,12.494,5.06Zm3.04,7.226h0L10.62,9.245c-.135-.083-.146,0-.146.094v5.882c0,.146,0,.177.156.094l1.437-.875Z" fill="#fff"/>
  </g>
</svg>
